<svg xmlns="http://www.w3.org/2000/svg" xmlns:xlink="http://www.w3.org/1999/xlink" version="1.1" id="Layer_1" x="0px" y="0px" viewBox="0 0 125 125" enable-background="new 0 0 125 125" xml:space="preserve">
<g>
	<path fill="#FFFFFF" d="M62.5 0.2C28.2 0.2 0.4 28.1 0.4 62.4s27.9 62.2 62.2 62.2s62.2-27.9 62.2-62.2S96.8 0.2 62.5 0.2z M62.5 121.6C29.9 121.6 3.4 95 3.4 62.4S29.9 3.2 62.5 3.2c32.6 0 59.2 26.5 59.2 59.2S95.1 121.6 62.5 121.6z"/>
</g>
<g>
	<path fill="#FFFFFF" d="M105.9 90.3l-5.4-15.1c-0.1-0.2-0.2-0.4-0.4-0.5c0-0.1 0-0.2 0-0.3V33c0-1.1-0.9-2-2-2h-69 c-1.1 0-2 0.9-2 2v41.4c0 0.1 0 0.2 0 0.3c-0.1 0.1-0.3 0.3-0.3 0.5l-6.3 15.1c-0.3 0.8 0.3 1.7 1.2 1.7h82.7 C105.5 91.9 106.1 91.1 105.9 90.3z M96.2 72.4h-5.1v7.8c0 0.9-0.8 1.7-1.7 1.7H49.8c-0.9 0-1.7-0.8-1.7-1.7v-3.3h-5.2 c-0.6 0-1.2-0.5-1.2-1.2v-3.3H31.2V34.9h65V72.4z"/>
	<path fill="#FFFFFF" d="M90.6 52.3c0-0.6-0.5-1.1-1.1-1.1H49.8c-0.6 0-1.1 0.5-1.1 1.1v3.6h2.3v-2.4h32.9V79H50.9v-2.1h-2.3v3.3 c0 0.6 0.5 1.1 1.1 1.1h39.7c0.6 0 1.1-0.5 1.1-1.1V52.3z M86.6 64.7c0.8 0 1.4 0.6 1.4 1.4s-0.6 1.4-1.4 1.4 c-0.8 0-1.4-0.6-1.4-1.4S85.8 64.7 86.6 64.7z"/>
	<circle fill="#FFFFFF" cx="86.6" cy="66.1" r="0.9"/>
	<path fill="#FFFFFF" d="M52.8 76.3c0.3 0 0.6-0.3 0.6-0.6V57c0-0.3-0.3-0.6-0.6-0.6h-9.9c-0.3 0-0.6 0.3-0.6 0.6v18.7 c0 0.3 0.3 0.6 0.6 0.6H52.8z M48.7 74.2c0 0.1 0 0.2-0.1 0.3c-0.1 0.3-0.4 0.5-0.7 0.5c-0.3 0-0.6-0.2-0.7-0.5 c0-0.1-0.1-0.2-0.1-0.3l0 0v0c0-0.1 0-0.2 0.1-0.3c0.1-0.3 0.4-0.5 0.7-0.5c0.3 0 0.6 0.2 0.7 0.5C48.7 74 48.7 74.1 48.7 74.2 L48.7 74.2L48.7 74.2z M43.5 57.6h8.7v15.1h-8.7V57.6z"/>
	<circle fill="#FFFFFF" cx="47.9" cy="74.2" r="0.5"/>
</g>
</svg>
