<?xml version="1.0" encoding="utf-8"?>
<!-- Generator: Adobe Illustrator 18.1.1, SVG Export Plug-In . SVG Version: 6.00 Build 0)  -->
<!DOCTYPE svg PUBLIC "-//W3C//DTD SVG 1.1//EN" "http://www.w3.org/Graphics/SVG/1.1/DTD/svg11.dtd">
<svg version="1.1" id="Layer_1" xmlns="http://www.w3.org/2000/svg" xmlns:xlink="http://www.w3.org/1999/xlink" x="0px" y="0px"
	 viewBox="0 0 125 125" enable-background="new 0 0 125 125" xml:space="preserve">
<g>
	<path fill="#FFFFFF" d="M121.8,59.5c-1-1.6-1.2-3.6-0.6-5.4c2.4-6.8-0.1-14.3-6-18.4c-1.6-1.1-2.5-2.8-2.7-4.7
		c-0.6-7.1-5.9-13.1-13-14.4c-1.9-0.4-3.5-1.5-4.4-3.2c-2.8-5.1-8.2-8.3-14-8.3c-1.2,0-2.5,0.1-3.7,0.4c-1.8,0.4-3.8,0-5.3-1.1
		c-2.8-2.1-6.2-3.3-9.7-3.3s-6.9,1.2-9.7,3.3c-1.5,1.1-3.5,1.6-5.3,1.1c-1.2-0.3-2.4-0.4-3.7-0.4c-5.8,0-11.2,3.2-14,8.3
		c-0.9,1.7-2.5,2.8-4.4,3.2c-7,1.3-12.4,7.3-13,14.4c-0.2,1.9-1.1,3.6-2.7,4.7c-5.9,4.1-8.4,11.7-6,18.4c0.6,1.8,0.4,3.8-0.6,5.4
		c-3.7,6.1-2.9,14,2,19.3c1.3,1.4,1.9,3.3,1.7,5.1C6,91,10,97.9,16.6,100.7c1.8,0.7,3.1,2.2,3.6,4c2,6.8,8.2,11.4,15.3,11.4l0.5,0
		c1.8,0,3.6,0.8,4.8,2.2c3,3.5,7.5,5.6,12.1,5.6c2.4,0,4.7-0.5,6.8-1.5c1.7-0.8,3.7-0.8,5.4,0c2.2,1,4.4,1.5,6.8,1.5
		c4.7,0,9.1-2,12.1-5.6c1.2-1.4,3-2.2,4.8-2.2l0.5,0c7.1,0,13.3-4.6,15.3-11.4c0.5-1.8,1.9-3.3,3.6-4c6.6-2.8,10.6-9.7,9.7-16.8
		c-0.2-1.9,0.4-3.8,1.7-5.1C124.7,73.5,125.5,65.6,121.8,59.5z M62.5,116C32.9,116,9,92.1,9,62.5S32.9,9,62.5,9s53.5,24,53.5,53.5
		S92.1,116,62.5,116z"/>
	<path fill="#FFFFFF" d="M67.2,90.1c0,0.1,0.1,0.1,0.1,0.2c0,0,0,0,0,0C67.2,90.2,67.2,90.1,67.2,90.1C67.2,90,67.2,90,67.2,90.1z"
		/>
	<path fill="#FFFFFF" d="M67.3,88.3C67.3,88.3,67.3,88.3,67.3,88.3c0-0.1-0.1-0.2-0.1-0.2c0,0,0,0,0,0
		C67.2,88.2,67.3,88.3,67.3,88.3z"/>
	<path fill="#FFFFFF" d="M62.5,13.2c-27.2,0-49.3,22.1-49.3,49.3s22.1,49.3,49.3,49.3s49.3-22.1,49.3-49.3S89.7,13.2,62.5,13.2z
		 M62.5,109.9c-26.1,0-47.4-21.3-47.4-47.4s21.3-47.4,47.4-47.4s47.4,21.3,47.4,47.4S88.6,109.9,62.5,109.9z"/>
	<polygon fill="#FFFFFF" points="26.3,60.4 32.1,60.4 32.1,58.1 26.3,58.1 26.3,54.9 33,54.9 33,52.3 23.3,52.3 23.3,66.1 
		26.3,66.1 	"/>
	<path fill="#FFFFFF" d="M34.5,52.3v8.6c0,1.9,0.5,3.3,1.5,4.2c1,0.9,2.5,1.4,4.3,1.4c1.8,0,3.3-0.5,4.3-1.4c1-0.9,1.6-2.3,1.6-4.2
		v-8.6h-3v8.6c0,1-0.2,1.8-0.6,2.3c-0.4,0.5-1.2,0.7-2.2,0.7c-0.6,0-1.1-0.1-1.5-0.3c-0.4-0.2-0.7-0.4-0.9-0.7
		c-0.2-0.3-0.3-0.6-0.4-1c-0.1-0.4-0.1-0.7-0.1-1.1v-8.6H34.5z"/>
	<polygon fill="#FFFFFF" points="51.8,56.9 57.5,66.1 60.5,66.1 60.5,52.3 57.7,52.3 57.7,61.6 57.7,61.6 51.9,52.3 48.9,52.3 
		48.9,66.1 51.7,66.1 51.7,56.9 	"/>
	<path fill="#FFFFFF" d="M73.9,64.1c0.5-0.6,0.9-1.4,1.2-2.2c0.3-0.8,0.4-1.8,0.4-2.8c0-1.1-0.2-2.1-0.5-3c-0.3-0.9-0.8-1.6-1.3-2.1
		c-0.6-0.6-1.2-1-2-1.3c-0.8-0.3-1.6-0.4-2.5-0.4h-6v13.8h6c1.1,0,2-0.2,2.8-0.5C72.7,65.2,73.4,64.8,73.9,64.1z M70.2,63.4
		c-0.4,0.1-0.8,0.2-1.3,0.2h-2.7v-8.7h2.2c0.7,0,1.4,0.1,1.9,0.3c0.5,0.2,0.9,0.5,1.2,0.9s0.5,0.9,0.7,1.4c0.1,0.6,0.2,1.2,0.2,1.9
		c0,0.8-0.1,1.4-0.3,1.9c-0.2,0.5-0.5,1-0.8,1.3C71,63,70.6,63.2,70.2,63.4z"/>
	<polygon fill="#FFFFFF" points="87.8,54.9 87.8,52.3 77.5,52.3 77.5,66.1 88,66.1 88,63.6 80.5,63.6 80.5,60.2 87.2,60.2 
		87.2,57.8 80.5,57.8 80.5,54.9 	"/>
	<path fill="#FFFFFF" d="M96,52.3h-6v13.8h6c1.1,0,2-0.2,2.8-0.5c0.8-0.4,1.4-0.8,2-1.5c0.5-0.6,0.9-1.4,1.2-2.2
		c0.3-0.8,0.4-1.8,0.4-2.8c0-1.1-0.2-2.1-0.5-3c-0.3-0.9-0.8-1.6-1.3-2.1c-0.6-0.6-1.2-1-2-1.3C97.7,52.5,96.9,52.3,96,52.3z
		 M99.2,59.4c0,0.8-0.1,1.4-0.3,1.9c-0.2,0.5-0.5,1-0.8,1.3c-0.3,0.3-0.7,0.6-1.1,0.7c-0.4,0.1-0.8,0.2-1.3,0.2h-2.7v-8.7h2.2
		c0.7,0,1.4,0.1,1.9,0.3s0.9,0.5,1.2,0.9c0.3,0.4,0.5,0.9,0.7,1.4C99.2,58.1,99.2,58.8,99.2,59.4z"/>
	<rect x="24.8" y="47.2" fill="#FFFFFF" width="75.3" height="1"/>
	<rect x="24.8" y="69.4" fill="#FFFFFF" width="75.3" height="1"/>
	<path fill="#FFFFFF" d="M58.2,88.7c0.1,0,0.1,0,0.2,0c-0.1-0.1-0.3-0.1-0.4-0.2c0,0,0,0,0,0C58,88.6,58.1,88.7,58.2,88.7z"/>
	<path fill="#FFFFFF" d="M67.8,90.7C67.8,90.7,67.8,90.7,67.8,90.7C67.8,90.7,67.9,90.7,67.8,90.7c0.1,0.1,0.1,0.1,0.1,0.1
		C67.9,90.7,67.9,90.7,67.8,90.7z"/>
	<path fill="#FFFFFF" d="M72.1,85.2c-1.5,0-4.2,0.3-4.9,1.2c0-0.1-0.1-0.1-0.1-0.2c0.1-0.1,0.2-0.3,0.2-0.4c0,0,0-0.1,0-0.1
		c0,0,0-0.1,0-0.1c0,0,0-0.1,0-0.1c0,0,0-0.1,0-0.1c0,0,0-0.1,0-0.1c0,0,0-0.1,0-0.1c0,0,0-0.1,0-0.1c0,0,0-0.1,0-0.1
		c0,0,0-0.1,0-0.1c0,0,0-0.1,0-0.1c0,0,0-0.1,0-0.1c0,0,0-0.1,0-0.1c0-0.2-0.1-0.3-0.2-0.4c0.1-0.1,0.2-0.3,0.2-0.4c0,0,0-0.1,0-0.1
		c0,0,0-0.1,0-0.1s0-0.1,0-0.1c0,0,0-0.1,0-0.1s0-0.1,0-0.1c0,0,0-0.1,0-0.1c0,0,0-0.1,0-0.1c0,0,0-0.1,0-0.1s0-0.1,0-0.1
		c0,0,0-0.1,0-0.1c0,0,0-0.1,0-0.1c0,0,0-0.1,0-0.1c0-1.3-3.3-1.6-5-1.6c-1.7,0-5,0.3-5,1.6c0,0,0,0.1,0,0.1c0,0,0,0.1,0,0.1
		c0,0,0,0.1,0,0.1c0,0,0,0.1,0,0.1s0,0.1,0,0.1c0,0,0,0.1,0,0.1c0,0,0,0.1,0,0.1c0,0,0,0.1,0,0.1s0,0.1,0,0.1c0,0,0,0.1,0,0.1
		s0,0.1,0,0.1c0,0,0,0.1,0,0.1c0,0.2,0.1,0.3,0.2,0.4c-0.1,0.1-0.2,0.3-0.2,0.4c0,0,0,0.1,0,0.1c0,0,0,0.1,0,0.1c0,0,0,0.1,0,0.1
		c0,0,0,0.1,0,0.1c0,0,0,0.1,0,0.1c0,0,0,0.1,0,0.1c0,0,0,0.1,0,0.1c0,0,0,0.1,0,0.1c0,0,0,0.1,0,0.1c0,0,0,0.1,0,0.1
		c0,0,0,0.1,0,0.1c0,0,0,0.1,0,0.1c0,0.2,0.1,0.3,0.2,0.4c-0.1,0.1-0.2,0.3-0.2,0.4c0,0,0,0.1,0,0.1c0,0,0,0.1,0,0.1
		c0,0,0,0.1,0,0.1c0,0,0,0.1,0,0.1c0,0,0,0.1,0,0.1c0,0,0,0.1,0,0.1c0,0,0,0.1,0,0.1c0,0,0,0.1,0,0.1c0,0,0,0.1,0,0.1
		c0,0,0,0.1,0,0.1c0,0,0,0.1,0,0.1c0,0,0,0.1,0,0.1c0,0.1,0,0.2,0.1,0.4c-0.9-0.7-3.2-0.9-4.6-0.9c-1.7,0-5,0.3-5,1.6
		c0,0,0,0.1,0,0.1c0,0,0,0.1,0,0.1c0,0,0,0.1,0,0.1c0,0,0,0.1,0,0.1s0,0.1,0,0.1c0,0,0,0.1,0,0.1c0,0,0,0.1,0,0.1c0,0,0,0.1,0,0.1
		c0,0,0,0.1,0,0.1c0,0,0,0.1,0,0.1c0,0,0,0.1,0,0.1c0,0,0,0.1,0,0.1c0,0.2,0.1,0.3,0.2,0.4c-0.1,0.1-0.2,0.3-0.2,0.4
		c0,0,0,0.1,0,0.1c0,0,0,0.1,0,0.1s0,0.1,0,0.1c0,0,0,0.1,0,0.1c0,0,0,0.1,0,0.1c0,0,0,0.1,0,0.1s0,0.1,0,0.1c0,0,0,0.1,0,0.1
		s0,0.1,0,0.1c0,0,0,0.1,0,0.1s0,0.1,0,0.1c0,0,0,0.1,0,0.1c0,0.2,0.1,0.3,0.2,0.4c-0.1,0.1-0.2,0.3-0.2,0.4c0,0,0,0.1,0,0.1
		c0,0,0,0.1,0,0.1c0,0,0,0.1,0,0.1c0,0,0,0.1,0,0.1c0,0,0,0.1,0,0.1c0,0,0,0.1,0,0.1c0,0,0,0.1,0,0.1c0,0,0,0.1,0,0.1
		c0,0,0,0.1,0,0.1c0,0,0,0.1,0,0.1s0,0.1,0,0.1c0,0,0,0.1,0,0.1c0,1.3,3.3,1.6,5,1.6c0.1,0,0.2,0,0.3,0c0,0.2,0.1,0.3,0.1,0.4
		c-0.1,0.1-0.2,0.3-0.2,0.4c0,0,0,0.1,0,0.1c0,0,0,0.1,0,0.1s0,0.1,0,0.1c0,0,0,0.1,0,0.1s0,0.1,0,0.1c0,0,0,0.1,0,0.1
		c0,0,0,0.1,0,0.1c0,0,0,0.1,0,0.1s0,0.1,0,0.1c0,0,0,0.1,0,0.1c0,0,0,0.1,0,0.1c0,0,0,0.1,0,0.1c0,1.3,3.3,1.6,5,1.6
		c1.7,0,5-0.3,5-1.6c0,0,0-0.1,0-0.1c0,0,0-0.1,0-0.1c0,0,0,0,0,0c0.4,0,0.9-0.1,1.4-0.1c0,0,0,0,0,0.1c0,0,0,0.1,0,0.1
		c0,0,0,0.1,0,0.1c0,0,0,0.1,0,0.1c0,1.3,3.3,1.6,5,1.6s5-0.3,5-1.6c0,0,0-0.1,0-0.1c0,0,0-0.1,0-0.1c0,0,0-0.1,0-0.1
		c0,0,0-0.1,0-0.1s0-0.1,0-0.1c0,0,0-0.1,0-0.1c0,0,0-0.1,0-0.1c0,0,0-0.1,0-0.1s0-0.1,0-0.1c0,0,0-0.1,0-0.1s0-0.1,0-0.1
		c0,0,0-0.1,0-0.1c0-0.2-0.1-0.3-0.2-0.4c0.1-0.1,0.2-0.3,0.2-0.4c0,0,0-0.1,0-0.1c0,0,0,0,0-0.1c1.4-0.2,2.6-0.6,2.6-1.4
		c0,0,0-0.1,0-0.1c0,0,0-0.1,0-0.1s0-0.1,0-0.1c0,0,0-0.1,0-0.1c0,0,0-0.1,0-0.1c0,0,0-0.1,0-0.1c0,0,0-0.1,0-0.1c0,0,0-0.1,0-0.1
		c0,0,0-0.1,0-0.1c0,0,0-0.1,0-0.1c0,0,0-0.1,0-0.1c0,0,0-0.1,0-0.1c0-0.2-0.1-0.3-0.2-0.4c0.1-0.1,0.2-0.3,0.2-0.4c0,0,0-0.1,0-0.1
		c0,0,0-0.1,0-0.1s0-0.1,0-0.1c0,0,0-0.1,0-0.1s0-0.1,0-0.1c0,0,0-0.1,0-0.1s0-0.1,0-0.1c0,0,0-0.1,0-0.1c0,0,0-0.1,0-0.1
		c0,0,0-0.1,0-0.1s0-0.1,0-0.1c0,0,0-0.1,0-0.1c0-0.2-0.1-0.3-0.2-0.4c0.1-0.1,0.2-0.3,0.2-0.4c0,0,0-0.1,0-0.1c0,0,0-0.1,0-0.1
		c0,0,0-0.1,0-0.1c0,0,0-0.1,0-0.1c0,0,0-0.1,0-0.1c0,0,0-0.1,0-0.1c0,0,0-0.1,0-0.1c0,0,0-0.1,0-0.1s0-0.1,0-0.1c0,0,0-0.1,0-0.1
		c0,0,0-0.1,0-0.1c0,0,0-0.1,0-0.1c0-0.2-0.1-0.3-0.2-0.4c0.1-0.1,0.2-0.3,0.2-0.4c0,0,0-0.1,0-0.1c0,0,0-0.1,0-0.1c0,0,0-0.1,0-0.1
		c0,0,0-0.1,0-0.1c0,0,0-0.1,0-0.1c0,0,0-0.1,0-0.1c0,0,0-0.1,0-0.1c0,0,0-0.1,0-0.1c0,0,0-0.1,0-0.1c0,0,0-0.1,0-0.1
		c0,0,0-0.1,0-0.1c0,0,0-0.1,0-0.1C77.1,85.6,73.9,85.2,72.1,85.2z M52.9,87.8c2.9,0,4.2,0.6,4.3,0.9c0,0,0,0,0,0
		c-1.3,0.1-2.8,0.3-3.6,0.9c-0.2,0-0.5,0-0.7,0c-2.9,0-4.2-0.6-4.3-0.9C48.6,88.5,50,87.8,52.9,87.8z M62.3,81.9
		c2.9,0,4.2,0.6,4.3,0.9c0,0.2-1.4,0.9-4.3,0.9c-2.9,0-4.2-0.6-4.3-0.9C58.1,82.5,59.5,81.9,62.3,81.9z M72.1,85.9
		c2.9,0,4.2,0.6,4.3,0.9c0,0.2-1.4,0.9-4.3,0.9c-2.9,0-4.2-0.6-4.3-0.9C67.9,86.6,69.3,85.9,72.1,85.9z M76.4,88.7
		c0,0.2-1.4,0.9-4.3,0.9c-2.9,0-4.2-0.6-4.3-0.9c0,0,0,0,0,0c1.1,0.6,3.1,0.7,4.3,0.7C73.4,89.5,75.4,89.3,76.4,88.7
		C76.4,88.7,76.4,88.7,76.4,88.7z M76.4,90.7c0,0.2-0.8,0.6-2.5,0.8c-0.1-0.1-0.2-0.1-0.3-0.1C74.7,91.2,75.7,91,76.4,90.7
		C76.4,90.7,76.4,90.7,76.4,90.7z M76.4,92.6c0,0.2-0.7,0.5-1.9,0.7c0,0,0,0,0,0c0,0,0-0.1,0-0.1c0,0,0,0,0-0.1
		C75.2,93,75.9,92.8,76.4,92.6C76.4,92.6,76.4,92.6,76.4,92.6z M73.8,96.1c0,0.2-1.4,0.9-4.3,0.9c-2.9,0-4.2-0.6-4.3-0.9
		c0,0,0,0,0,0c1.1,0.6,3.1,0.7,4.3,0.7C70.7,96.8,72.7,96.6,73.8,96.1C73.8,96.1,73.8,96.1,73.8,96.1z M53.8,96.1
		C53.8,96.1,53.8,96.1,53.8,96.1c1.1,0.5,3.1,0.7,4.3,0.7c1.2,0,3.2-0.2,4.3-0.7c0,0,0,0,0,0c0,0.2-1.4,0.9-4.3,0.9
		C55.3,97,53.9,96.3,53.8,96.1z M48.6,92.6C48.6,92.6,48.6,92.6,48.6,92.6c1.1,0.5,3.1,0.7,4.3,0.7c0.1,0,0.2,0,0.3,0
		c0,0.1,0,0.1,0,0.2c-0.1,0-0.2,0-0.3,0C50,93.5,48.6,92.8,48.6,92.6z M48.6,90.7C48.6,90.7,48.6,90.7,48.6,90.7
		c1.1,0.5,3.1,0.7,4.3,0.7c0.1,0,0.2,0,0.3,0c0,0.1,0,0.1,0,0.2c-0.1,0-0.2,0-0.3,0C50,91.6,48.6,90.9,48.6,90.7z M58,86.6
		C58,86.6,58,86.6,58,86.6c1.1,0.5,3.1,0.7,4.3,0.7c1.2,0,3.2-0.2,4.3-0.7c0,0,0,0,0,0c0,0.2-1.4,0.9-4.3,0.9
		C59.5,87.5,58.1,86.9,58,86.6z M58,84.7C58,84.7,58,84.7,58,84.7c1.1,0.5,3.1,0.7,4.3,0.7c1.2,0,3.2-0.2,4.3-0.7c0,0,0,0,0,0
		c0,0.2-1.4,0.9-4.3,0.9C59.5,85.6,58.1,85,58,84.7z M58.4,88.7c-0.1,0-0.2,0-0.2,0c-0.1-0.1-0.2-0.1-0.2-0.2c0,0,0,0,0,0
		 M73.8,92.2c0,0.2-1.4,0.9-4.3,0.9c-2.9,0-4.2-0.6-4.3-0.9c0-0.2,1.4-0.9,4.3-0.9C72.4,91.4,73.8,92,73.8,92.2z M73.8,94.2
		c0,0.2-1.4,0.9-4.3,0.9c-2.9,0-4.2-0.6-4.3-0.9c0,0,0,0,0,0c1.1,0.6,3.1,0.7,4.3,0.7C70.7,94.9,72.7,94.7,73.8,94.2
		C73.8,94.2,73.8,94.2,73.8,94.2z M63.1,95.2C63.1,95.2,63.1,95.2,63.1,95.2c0-0.1,0-0.1,0-0.2c0,0,0,0,0,0c0.4,0,0.9-0.1,1.4-0.1
		c0,0,0,0,0,0.1c0,0,0,0.1,0,0.1c0,0,0,0,0,0C64.1,95.1,63.6,95.2,63.1,95.2z M62,89.3c0.1,0,0.2,0,0.3,0c1.2,0,3.2-0.2,4.3-0.7
		c0,0,0,0,0,0c0,0.2-1.4,0.9-4.2,0.9C62.3,89.4,62.2,89.3,62,89.3z M64.5,93C64.5,93.1,64.5,93.1,64.5,93c0,0.1,0,0.1,0,0.1
		c-0.4,0.1-0.9,0.1-1.4,0.1c0,0,0-0.1,0-0.1c0,0,0-0.1,0-0.1c0,0,0,0,0,0C63.6,93.1,64,93,64.5,93C64.5,93,64.5,93,64.5,93z
		 M66.6,90.5C66.6,90.5,66.6,90.5,66.6,90.5c0,0.2-1.2,0.8-3.5,0.9c0,0,0-0.1,0-0.1c0,0,0-0.1,0-0.1c0,0,0,0,0,0
		C64.3,91.1,65.8,90.9,66.6,90.5z M53.8,92.2C53.8,92.2,53.8,92.2,53.8,92.2c1.1,0.5,3.1,0.7,4.3,0.7c1.2,0,3.2-0.2,4.3-0.7
		c0,0,0,0,0,0c0,0.2-1.4,0.9-4.3,0.9C55.3,93.1,53.9,92.5,53.8,92.2z M53.8,94.2C53.8,94.2,53.8,94.2,53.8,94.2
		c1.1,0.5,3.1,0.7,4.3,0.7c1.2,0,3.2-0.2,4.3-0.7c0,0,0,0,0,0c0,0.2-1.4,0.9-4.3,0.9C55.3,95.1,53.9,94.4,53.8,94.2z M58.1,89.4
		c2.9,0,4.2,0.6,4.3,0.9c0,0.2-1.4,0.9-4.3,0.9c-2.9,0-4.2-0.6-4.3-0.9C53.9,90.1,55.3,89.4,58.1,89.4z"/>
</g>
</svg>
