<?xml version="1.0" encoding="utf-8"?>
<!-- Generator: Adobe Illustrator 18.1.1, SVG Export Plug-In . SVG Version: 6.00 Build 0)  -->
<!DOCTYPE svg PUBLIC "-//W3C//DTD SVG 1.1//EN" "http://www.w3.org/Graphics/SVG/1.1/DTD/svg11.dtd">
<svg version="1.1" id="twitter" xmlns="http://www.w3.org/2000/svg" xmlns:xlink="http://www.w3.org/1999/xlink" x="0px" y="0px"
	 viewBox="31.6 37.4 61.8 50.4" enable-background="new 31.6 37.4 61.8 50.4" xml:space="preserve">
<g id="_x35_151e0c8492e5103c096af88a5006e1e">
	<path id="XMLID_1_" fill="#FFFFFF" d="M32.4,64.1c2.7-0.7,6.4-1.6,12.9-1.8c-0.2-0.4-0.3-0.7-0.5-1.1c-2.5,0-10.3,0.3-13,1
		c0,0,0,0,0,0c-0.1,0-0.2-0.1-0.2-0.2c0-0.1,0-0.2,0.1-0.2c2.6-0.7,10.2-1,12.9-1c-0.6-1.8-0.9-3.8-0.9-6.1c0-4,1.3-5.6,2.9-7.7
		c-1.3-4.6,0.5-7.8,0.5-7.8s2.7-0.6,7.9,3.1c2.8-1.2,10.2-1.3,13.7-0.3c2.2-1.4,6.1-3.4,7.7-2.9c0.4,0.7,1.4,2.7,0.6,7.2
		c0.5,1,3.3,3,3.4,8.9c0,2.2-0.3,4-0.7,5.5c6.7-0.1,10.6,0.5,13.3,1c0.1,0,0.2,0.1,0.2,0.2c0,0.1-0.1,0.2-0.2,0.2c0,0,0,0,0,0
		c-2.7-0.5-6.7-1.1-13.4-1c-0.1,0.4-0.2,0.8-0.4,1.1c2.3,0.1,8.6,0.3,13.7,1.9c0.1,0,0.2,0.1,0.1,0.2c0,0.1-0.1,0.1-0.2,0.1
		c0,0,0,0-0.1,0c-5.2-1.6-11.6-1.8-13.8-1.9c-1.9,4.1-5.7,5.6-11.9,6.3c2,1.3,2.6,2.8,2.6,7.1c0,4.3-0.1,4.8,0,5.8
		c0,1.6,2.4,2.4,2.3,2.9c-0.1,0.5-2,0.4-2.9,0.1c-2.5-0.9-2.3-3-2.3-3l-0.1-5.7c0,0,0.2-3.1-1-3.1c0,0.6,0,7.1,0,9.4
		c0,2,1.4,2.6,1.4,3.4c0,1.3-2.6-0.1-3.4-0.9c-1.2-1.2-1.1-3.8-1.1-5.9c0-2,0-6.3,0-6.3l-0.8,0c0,0,0.3,9.5-0.4,11.2c-1,2.2-4,3-4,2
		c0-0.7,0.7-0.5,1.2-2c0.4-1.3,0.2-11,0.2-11s-1,0.6-1,2.4c0,0.8,0,5.6,0,7c0,1.8-2.5,2.8-3.7,2.8c-0.6,0-1.4,0-1.4-0.4
		c0-0.8,2.3-1.3,2.3-3c0-1.5,0-5.3,0-5.3s-1.2,0.2-2.8,0.2c-4.2,0-5.5-2.7-6.1-4.2c-0.8-1.9-1.9-2.9-3-3.6c-0.7-0.4-0.9-1-0.1-1.1
		c3.7-0.7,4.6,4.2,7.1,5c1.8,0.6,4,0.3,5.2-0.4c0.1-1.5,1.2-2.8,2.1-3.5c-6.3-0.6-10-2.8-11.9-6.3c-6.6,0.2-10.3,1.1-13,1.8
		c-0.2,0-0.4,0.1-0.6,0.1c0,0,0,0,0,0c-0.1,0-0.2-0.1-0.2-0.2c0-0.1,0-0.2,0.1-0.2C32,64.2,32.2,64.1,32.4,64.1z"/>
</g>
</svg>
