<?xml version="1.0" encoding="utf-8"?>
<!-- Generator: Adobe Illustrator 18.1.1, SVG Export Plug-In . SVG Version: 6.00 Build 0)  -->
<!DOCTYPE svg PUBLIC "-//W3C//DTD SVG 1.1//EN" "http://www.w3.org/Graphics/SVG/1.1/DTD/svg11.dtd">
<svg version="1.1" id="Layer_1" xmlns="http://www.w3.org/2000/svg" xmlns:xlink="http://www.w3.org/1999/xlink" x="0px" y="0px"
	 viewBox="0 0 125 125" enable-background="new 0 0 125 125" xml:space="preserve">
<g>
	<path fill="#FFFFFF" d="M10.6,80.9c0-4-1.6-7.2,0.3-10.8c-7-7-2.8-3.2-2.8-7.8c0-2.4-2.2-4.7-4.6-6.5c-0.2,2.1-0.4,4.3-0.4,6.5
		c0,17.5,7.6,33.2,19.6,44.1L18.1,97C13.1,97,10.6,85.9,10.6,80.9z"/>
	<path fill="#FFFFFF" d="M62.7,0.6C28.6,0.6,0.9,28.3,0.9,62.3s27.7,61.8,61.8,61.8s61.8-27.7,61.8-61.8S96.7,0.6,62.7,0.6z
		 M3.2,62.3c0-2.2,0.1-4.4,0.4-6.5C6,57.6,8.2,60,8.2,62.3c0,4.6-4.2,0.7,2.8,7.8c-1.9,3.7-0.3,6.8-0.3,10.8c0,5,2.5,16.1,7.4,16.1
		l4.7,9.4C10.8,95.5,3.2,79.8,3.2,62.3z M73.8,68.5c5,9.9,5,5,9.9,9.9c5,5,14.9-5,14.9-5s0,5,5,9.9c5,5-1.2,14.9-1.2,14.9l2.8,5.7
		c-10.8,11-25.8,17.9-42.5,17.9c-8.1,0-15.9-1.6-23-4.6c1.9-4.4,5-10.3,8.1-10.3c5,0,5,0,5-5c0-9.9,5-5,5-9.9s-9.9-5-14.9-9.9
		c-5-5-7.4-9.9-12.4-9.9c-2.5-5-2.5-5-7.4-5c-5,0-5-5-9.9,0c-4.4-4.2-5-16-8.3-19C5.7,45,6.7,41.9,8,38.9c3.4,2.7,1.3,8.6,5.1,8.6
		c5,0,0-9.9,5-9.9s9.9,0,9.9-5s9.9,0,9.9,0c5-5,5-5,0-7.4c-2.2-1.1,5,2.5,5-2.5c0-9.9-5,0,0-9.9s9.9,0,9.9-5c0-1.5,0.4-3,1.1-4.3
		c2.9-0.4,5.8-0.7,8.9-0.7c5.6,0,10.9,0.8,16.1,2.2c-0.7,5.2-4.8,14-0.1,14c5,0,14.9-5,9.9-9.9c2.8,1.1,5.9,2.9,8.7,5
		c-2.6,0.2-8.7,1-8.7,4.9c0,5-9.9,5-5,9.9c5,5-9.9,0-5,5c5,5,0,9.9,5,5c5-5,5-9.9,9.9-9.9s5,5,9.9,5c5,0-5-9.9,0-9.9
		c1.5,0,2.7-0.5,3.6-1.1c4.2,4.8,7.7,10.2,10.3,16.2c-8.1,0.9-13.8,4.8-13.8,4.8c-9.9-9.9-14.9,0-19.8,0c-5,0-5,9.9-5,9.9
		S68.9,58.6,73.8,68.5z"/>
</g>
</svg>
