<?xml version="1.0" encoding="utf-8"?>
<!-- Generator: Adobe Illustrator 18.1.1, SVG Export Plug-In . SVG Version: 6.00 Build 0)  -->
<!DOCTYPE svg PUBLIC "-//W3C//DTD SVG 1.1//EN" "http://www.w3.org/Graphics/SVG/1.1/DTD/svg11.dtd">
<svg version="1.1" id="Layer_1" xmlns="http://www.w3.org/2000/svg" xmlns:xlink="http://www.w3.org/1999/xlink" x="0px" y="0px"
	 viewBox="0 0 125 125" enable-background="new 0 0 125 125" xml:space="preserve">
<g>
	<path fill="#FFFFFF" d="M95.9,36.6c-9.1-9.1-24.1-9.1-33.2,0l-0.2,0.2l-0.2-0.2c-9.1-9.1-24.1-9.1-33.2,0s-9.1,24.1,0,33.2
		l33.2,33.2l0.2-0.2l0.2,0.2l33.2-33.2C105.1,60.7,105.1,45.7,95.9,36.6L95.9,36.6z M46.4,42.7c-5.9,0-10.7,4.8-10.7,10.7
		c0,1.7-1.3,3-3,3s-3-1.3-3-3c0-9.2,7.5-16.7,16.7-16.7c1.7,0,3,1.3,3,3S48,42.7,46.4,42.7z"/>
	<path fill="#FFFFFF" d="M62.5,0.2C28.2,0.2,0.4,28.1,0.4,62.4s27.9,62.2,62.2,62.2s62.2-27.9,62.2-62.2S96.8,0.2,62.5,0.2z
		 M62.5,121.6C29.9,121.6,3.4,95,3.4,62.4S29.9,3.2,62.5,3.2c32.6,0,59.2,26.5,59.2,59.2S95.1,121.6,62.5,121.6z"/>
</g>
</svg>
