<?xml version="1.0" encoding="utf-8"?>
<!-- Generator: Adobe Illustrator 18.1.1, SVG Export Plug-In . SVG Version: 6.00 Build 0)  -->
<!DOCTYPE svg PUBLIC "-//W3C//DTD SVG 1.1//EN" "http://www.w3.org/Graphics/SVG/1.1/DTD/svg11.dtd">
<svg version="1.1" id="Layer_1" xmlns="http://www.w3.org/2000/svg" xmlns:xlink="http://www.w3.org/1999/xlink" x="0px" y="0px"
	 viewBox="0 0 125 125" enable-background="new 0 0 125 125" xml:space="preserve">
<g>
	<path fill="none" d="M115.1,69.6c-2.5,0-4.7-1.7-5.4-4H98.3c-0.7,2.3-2.9,4-5.4,4s-4.7-1.7-5.4-4H77.3c-0.7,2.3-2.9,4-5.4,4
		s-4.7-1.7-5.4-4H56.3c-0.7,2.3-2.9,4-5.4,4c-2.5,0-4.7-1.7-5.4-4H35.3c-0.1,0.4-0.3,0.9-0.6,1.3l13.9,15.6c0.7-0.3,1.5-0.5,2.3-0.5
		c2.4,0,4.5,1.6,5.3,3.7h10.4c0.8-2.2,2.9-3.7,5.3-3.7s4.5,1.6,5.3,3.7h10.4c0.8-2.2,2.9-3.7,5.3-3.7c3.1,0,5.6,2.5,5.6,5.6
		c0,3.1-2.5,5.6-5.6,5.6c-2.4,0-4.4-1.5-5.2-3.6H77.2c-0.8,2.1-2.9,3.6-5.2,3.6s-4.4-1.5-5.2-3.6H56.2c-0.8,2.1-2.9,3.6-5.2,3.6
		c-3.1,0-5.6-2.5-5.6-5.6c0-0.8,0.2-1.6,0.5-2.3l-14.2-16c-0.5,0.2-1.1,0.3-1.7,0.3c-2.5,0-4.7-1.7-5.4-4H15c-0.7,2.3-2.9,4-5.4,4
		s-4.7-1.7-5.4-4H3.4c1.7,31.1,27.5,55.9,59.1,55.9c31.5,0,57.4-24.8,59.1-55.9h-1.1C119.8,68,117.6,69.6,115.1,69.6z"/>
	<path fill="none" d="M88,61.3L74.3,45.7c-0.5,0.2-1.1,0.3-1.7,0.3c-2.4,0-4.4-1.5-5.3-3.6H56.9c-0.8,2.1-2.9,3.6-5.3,3.6
		s-4.4-1.5-5.3-3.6H35.9c-0.8,2.1-2.9,3.6-5.3,3.6c-0.7,0-1.3-0.1-1.9-0.3L14.6,61.4c0,0.1,0.1,0.2,0.1,0.2h10
		c0.9-2,2.9-3.3,5.1-3.3s4.2,1.4,5.1,3.3h10.7c0.9-2,2.9-3.3,5.1-3.3c2.3,0,4.2,1.4,5.1,3.3h10.7c0.9-2,2.9-3.3,5.1-3.3
		s4.2,1.4,5.1,3.3h10.7C87.9,61.6,87.9,61.4,88,61.3z"/>
	<path fill="none" d="M9.6,58.4c0.7,0,1.4,0.1,2,0.4l14-15.7c-0.4-0.8-0.7-1.7-0.7-2.7c0-3.1,2.5-5.6,5.6-5.6c2.4,0,4.5,1.5,5.3,3.7
		h10.4c0.8-2.2,2.9-3.7,5.3-3.7c2.4,0,4.5,1.5,5.3,3.7h10.4c0.8-2.2,2.9-3.7,5.3-3.7c3.1,0,5.6,2.5,5.6,5.6c0,1.1-0.3,2-0.8,2.9
		L91,58.7c0.6-0.2,1.3-0.4,2-0.4c2.3,0,4.2,1.4,5.1,3.3h11.9c0.9-2,2.9-3.3,5.1-3.3s4.2,1.4,5.1,3.3h1.4
		C121.2,29.4,94.9,3.2,62.5,3.2C30.1,3.2,3.8,29.4,3.4,61.7h1.1C5.4,59.7,7.3,58.4,9.6,58.4z"/>
	<path d="M62.5,0.2C28.2,0.2,0.3,28.1,0.3,62.4s27.9,62.2,62.2,62.2s62.2-27.9,62.2-62.2S96.8,0.2,62.5,0.2z M62.5,121.6
		C31,121.6,5.1,96.8,3.4,65.7H1.9v-4h1.5C3.8,29.4,30.1,3.2,62.5,3.2c32.4,0,58.7,26.1,59.1,58.4h0.7v4h-0.7
		C119.9,96.8,94,121.6,62.5,121.6z"/>
	<path d="M122.3,61.7h-0.7h-1.4c-0.9-2-2.9-3.3-5.1-3.3s-4.2,1.4-5.1,3.3H98.1c-0.9-2-2.9-3.3-5.1-3.3c-0.7,0-1.3,0.1-2,0.4
		L77.5,43.2c0.5-0.8,0.8-1.8,0.8-2.9c0-3.1-2.5-5.6-5.6-5.6c-2.4,0-4.5,1.5-5.3,3.7H56.9c-0.8-2.2-2.9-3.7-5.3-3.7
		c-2.4,0-4.5,1.5-5.3,3.7H35.9c-0.8-2.2-2.9-3.7-5.3-3.7c-3.1,0-5.6,2.5-5.6,5.6c0,1,0.3,1.9,0.7,2.7l-14,15.7
		c-0.6-0.2-1.3-0.4-2-0.4c-2.3,0-4.2,1.4-5.1,3.3H3.4H1.9v4h1.6h0.8c0.7,2.3,2.9,4,5.4,4s4.7-1.7,5.4-4h9.5c0.7,2.3,2.9,4,5.4,4
		c0.6,0,1.1-0.1,1.7-0.3l14.2,16c-0.3,0.7-0.5,1.5-0.5,2.3c0,3.1,2.5,5.6,5.6,5.6c2.4,0,4.4-1.5,5.2-3.6h10.5
		c0.8,2.1,2.9,3.6,5.2,3.6s4.4-1.5,5.2-3.6h10.5c0.8,2.1,2.9,3.6,5.2,3.6c3.1,0,5.6-2.5,5.6-5.6c0-3.1-2.5-5.6-5.6-5.6
		c-2.4,0-4.5,1.6-5.3,3.7H77.2c-0.8-2.2-2.9-3.7-5.3-3.7s-4.5,1.6-5.3,3.7H56.2c-0.8-2.2-2.9-3.7-5.3-3.7c-0.8,0-1.6,0.2-2.3,0.5
		L34.8,66.9c0.2-0.4,0.4-0.8,0.6-1.3h10.2c0.7,2.3,2.9,4,5.4,4c2.5,0,4.7-1.7,5.4-4h10.2c0.7,2.3,2.9,4,5.4,4s4.7-1.7,5.4-4h10.2
		c0.7,2.3,2.9,4,5.4,4s4.7-1.7,5.4-4h11.3c0.7,2.3,2.9,4,5.4,4s4.7-1.7,5.4-4h1.1h0.7V61.7z M71.9,58.4c-2.3,0-4.2,1.4-5.1,3.3H56.1
		c-0.9-2-2.9-3.3-5.1-3.3c-2.3,0-4.2,1.4-5.1,3.3H35.1c-0.9-2-2.9-3.3-5.1-3.3s-4.2,1.4-5.1,3.3h-10c0-0.1-0.1-0.2-0.1-0.2
		l14.1-15.8c0.6,0.2,1.2,0.3,1.9,0.3c2.4,0,4.4-1.5,5.3-3.6h10.5c0.8,2.1,2.9,3.6,5.3,3.6s4.4-1.5,5.3-3.6h10.5
		c0.8,2.1,2.9,3.6,5.3,3.6c0.6,0,1.2-0.1,1.7-0.3L88,61.3c-0.1,0.1-0.1,0.2-0.2,0.3H77.1C76.2,59.7,74.2,58.4,71.9,58.4z"/>
</g>
</svg>
