<?xml version="1.0" encoding="utf-8"?>
<!-- Generator: Adobe Illustrator 18.1.1, SVG Export Plug-In . SVG Version: 6.00 Build 0)  -->
<!DOCTYPE svg PUBLIC "-//W3C//DTD SVG 1.1//EN" "http://www.w3.org/Graphics/SVG/1.1/DTD/svg11.dtd">
<svg version="1.1" id="Layer_1" xmlns="http://www.w3.org/2000/svg" xmlns:xlink="http://www.w3.org/1999/xlink" x="0px" y="0px"
	 viewBox="0 0 125 125" enable-background="new 0 0 125 125" xml:space="preserve">
<g>
	<path fill="#FFFFFF" d="M93.2,15c-9.6-7-21.5-11.2-34.2-11.2C26.8,3.8,0.7,29.9,0.7,62c0,21.8,12,41.4,30.9,51.4
		c3.7,2.7,7.7,5,12.1,6.8l1.3,0.5L59,85.2l-1.2-0.5c-7.2-3.2-11.8-10.4-11.8-18.2c0-11,9-20,20-20c2.4,0,4.7,0.4,6.8,1.2
		c3.8,3.6,6.1,8.7,6.1,14.4c0,8.3-5.2,15.8-13,18.7l-1.3,0.5l14.2,35.5l0,0l7.1,4.4l0,0l1.2-0.5c22.5-8.8,37.1-30.1,37.1-54.3
		C124.3,44.2,111.7,24.7,93.2,15z M81.6,62c0-12.5-10.2-22.7-22.7-22.7S36.3,49.5,36.3,62c0,8.5,4.8,16.2,12.2,20.1l-12.1,30.7
		c-20.1-8.9-33-28.7-33-50.8c0-30.6,24.9-55.6,55.6-55.6s55.6,24.9,55.6,55.6c0,22.6-13.4,42.6-34.2,51.3L68.1,82.8
		C76.2,79.1,81.6,71,81.6,62z M86.6,120.1L86.6,120.1L86.6,120.1z"/>
	
		<line fill="#FFFFFF" stroke="#FFFFFF" stroke-width="0" stroke-linecap="round" stroke-linejoin="round" x1="86.6" y1="120.1" x2="86.6" y2="120.1"/>
</g>
</svg>
