<?xml version="1.0" encoding="utf-8"?>
<!-- Generator: Adobe Illustrator 18.1.1, SVG Export Plug-In . SVG Version: 6.00 Build 0)  -->
<!DOCTYPE svg PUBLIC "-//W3C//DTD SVG 1.1//EN" "http://www.w3.org/Graphics/SVG/1.1/DTD/svg11.dtd">
<svg version="1.1" id="Layer_1" xmlns="http://www.w3.org/2000/svg" xmlns:xlink="http://www.w3.org/1999/xlink" x="0px" y="0px"
	 viewBox="0 15.7 125 93.7" enable-background="new 0 15.7 125 93.7" xml:space="preserve">
<g>
	<path fill="none" d="M35.1,38.5c2.9,6.6,2.7,14.1,1.7,20.3C37.8,52.6,38,45.1,35.1,38.5z"/>
	<polygon fill="none" points="101.8,57.6 101.8,57.6 119.9,65.7 	"/>
	<path fill="none" d="M19.9,25.3c-2.9-1-5.7-1.5-8.3-1.5l1.7-5.6l-1.7,5.6C14.2,23.8,16.9,24.3,19.9,25.3
		c7.3,2.5,12.4,6.9,15.2,13.2C32.3,32.2,27.2,27.8,19.9,25.3z"/>
	<polygon fill="none" points="81.7,42.8 61.5,33.8 72.9,16.7 61.5,33.8 81.7,42.8 	"/>
	<polygon fill="none" points="121.2,60.3 121.2,60.3 113.3,56.8 	"/>
	<polygon fill="none" points="58.5,38.3 58.5,38.4 78.9,47.4 	"/>
	<polygon fill="none" points="83.9,49.7 65,80.9 66.8,97.3 66.8,97.3 65,80.9 	"/>
	<polygon fill="none" points="39.8,66.3 39.8,66.3 30.2,80.6 22.4,105.2 30.2,80.6 	"/>
	<path fill="none" d="M23.5,59.8c-0.1,0.6-0.3,1-0.3,1.2C23.2,60.8,23.4,60.4,23.5,59.8z"/>
	<path fill="none" d="M23.8,58.3L3.1,51.6L23.8,58.3C23.8,58.4,23.8,58.3,23.8,58.3z"/>
	<polygon fill="none" points="50.4,34.8 50.4,34.8 46.8,46 46.9,45.9 	"/>
	<polygon fill="none" points="98.6,50.3 98.6,50.3 86.7,45 103.5,17.2 86.7,45 	"/>
	<path fill="none" d="M7.8,36.3L7.8,36.3c6.5,0.5,11.1,2.7,13.7,6.5c0.4,0.6,0.7,1.2,1,1.8c-0.3-0.6-0.6-1.2-1-1.8
		C18.9,39,14.3,36.8,7.8,36.3z"/>
	<path fill="none" d="M28.3,68.9L28.3,68.9L28.3,68.9c0,0,1-2.4,2-6C29.3,66.5,28.3,68.9,28.3,68.9z"/>
	<path fill="none" d="M24.3,52.8C24.3,52.8,24.3,52.7,24.3,52.8C24.3,52.7,24.3,52.8,24.3,52.8L24.3,52.8z"/>
	<polygon fill="none" points="21.6,89.7 21.8,89.3 28.4,62.6 	"/>
	<path fill="none" d="M3.4,31.8L3.4,31.8c-1.1,0.9-2.1,2-3.1,3.4C1.3,33.9,2.3,32.7,3.4,31.8z"/>
	<polygon fill="#ADA38E" points="125,15.6 110,15.6 125,28.2 	"/>
	<polygon fill="#ADA38E" points="118.5,94.1 125,93.7 125,68 124.9,67.9 	"/>
	<polygon fill="#ADA38E" points="98.2,15.6 83.4,15.6 94.9,21 	"/>
	<polygon fill="#ADA38E" points="68.2,109.4 77.7,109.4 80.4,101.9 67.5,102.7 	"/>
	<path fill="#ADA38E" d="M7.8,36.3L4.7,46.4l19.6,6.4c0,0,0-0.1,0-0.1c0-2.6-0.5-5.5-1.7-8.1c-0.3-0.6-0.6-1.2-1-1.8
		C18.9,39,14.3,36.8,7.8,36.3z"/>
	<path fill="#ADA38E" d="M0.4,35.2L0,36.7v6.3l3.4-11.2C2.3,32.7,1.3,33.9,0.4,35.2z"/>
	<path fill="#ADA38E" d="M5.7,24.6L8.3,16l-0.9-0.4H5.2L2.7,25.8c0.7-0.4,1.5-0.7,2.3-1C5.2,24.8,5.4,24.7,5.7,24.6z"/>
	<path fill="#ADA38E" d="M23.2,61c0-0.2,0.2-0.6,0.3-1.2c0.1-0.4,0.2-0.9,0.3-1.4L3.1,51.6L0,61.7V104l12.7-0.7l10.5-42.1L23.2,61
		C23.2,61,23.2,61,23.2,61z"/>
	<polygon fill="#ADA38E" points="30,15.6 20.7,15.6 28.8,19.2 	"/>
	<polygon fill="#ADA38E" points="47.1,27.4 50.9,15.6 35.8,15.6 33.7,21.4 	"/>
	<polygon fill="#ADA38E" points="111.4,99.9 86.2,101.5 83.5,109.4 97.7,109.4 109.4,108.1 	"/>
	<polygon fill="#ADA38E" points="83.9,49.7 65,80.9 66.8,97.3 82.3,96.3 96.8,55.4 	"/>
	<polygon fill="#ADA38E" points="53.4,36.1 50.4,34.8 46.9,45.9 	"/>
	<polygon fill="#ADA38E" points="101.8,57.6 88.2,96 112.8,94.4 119.9,65.7 	"/>
	<polygon fill="#ADA38E" points="30.2,80.6 22.4,105.2 33.2,109.4 41.4,109.4 61.1,76.8 39.8,66.3 	"/>
	<path fill="#13B2D4" d="M63.1,59.2c-0.4,0-0.8,0.4-0.8,0.8c0,0.5,0.4,0.8,0.8,0.8c0.5,0,0.8-0.4,0.8-0.8
		C63.9,59.6,63.6,59.2,63.1,59.2z"/>
	<path fill="#13B2D4" d="M58.5,38.4L42.8,61.7L64,72.1l14.9-24.7L58.5,38.4z M63.2,65.4l-2.5-3.8c-0.3-0.4-0.4-0.9-0.4-1.5
		c0-1.6,1.3-2.9,2.9-2.9S66,58.4,66,60c0,0.6-0.2,1.2-0.5,1.7L63.2,65.4z"/>
	<path fill="#ADA38E" d="M30.3,63c1.6-5.9,3.1-15-0.2-22.3c-2.1-4.9-6.2-8.3-12-10.3c-3-1-5.7-1.4-8.2-1.2L9.4,31
		c7.6,0.9,13.1,3.8,16.6,8.7c6.4,9.1,2.8,21.6,2.4,22.9l-6.6,26.7l6.5-20.2l0.1-0.1l0-0.1C28.3,68.9,29.3,66.5,30.3,63z"/>
	<path fill="#ADA38E" d="M13.3,18.2l-1.7,5.6c2.6,0,5.4,0.5,8.3,1.5c7.3,2.5,12.4,6.9,15.2,13.2c2.9,6.6,2.7,14.1,1.7,20.3l0.2,0.1
		l8.5-26.3L13.3,18.2z"/>
	<polygon fill="#ADA38E" points="81.7,42.8 92.1,25.7 72.9,16.7 61.5,33.8 	"/>
	<polygon fill="#ADA38E" points="56.5,31.5 67.1,15.6 56.6,15.6 52.1,29.6 	"/>
	<polygon fill="#ADA38E" points="11.3,108.8 0.4,109.4 11.2,109.4 	"/>
	<polygon fill="#ADA38E" points="62.7,109.4 60.4,88.5 47.8,109.4 	"/>
	<polygon fill="#ADA38E" points="121.2,60.3 125,44.7 125,35.3 113.2,25.3 103.6,52.5 113.3,56.8 	"/>
	<polygon fill="#ADA38E" points="125,109.4 125,99.1 117.1,99.6 114.7,109.4 	"/>
	<polygon fill="#ADA38E" points="98.6,50.3 108.7,21.6 103.5,17.2 86.7,45 	"/>
	<path fill="#E5DDC6" d="M125,93.7l-6.5,0.4l6.4-26.1l0.1,0V44.7l-3.8,15.6l0,0l-7.8-3.5l-9.8-4.4l0,0l9.6-27.2l11.9,10v-7.1
		l-15-12.6H98.2L94.9,21l-11.5-5.4H67.1L56.5,31.5l-4.4-2l4.5-14h-5.7l-3.8,11.8l-13.4-6l2.1-5.8H30l-1.3,3.6l-8-3.6H7.5L8.3,16l0,0
		l-2.6,8.6c-0.2,0.1-0.5,0.2-0.7,0.2c-0.8,0.3-1.5,0.6-2.3,1c0,0,0,0,0,0l2.5-10.2H0v21.1l0.4-1.5c0.9-1.3,1.9-2.5,3.1-3.4l0,0
		L0,43.1v18.7l3.1-10.2l20.7,6.8c0,0,0,0,0,0c-0.1,0.6-0.2,1-0.3,1.4c-0.1,0.6-0.3,1-0.3,1.2c0,0,0,0.1,0,0.1l0,0.1l-10.4,42.1
		L0,104v5.4l11.4-0.6l-0.2,0.6h22l-10.8-4.1l7.9-24.6l9.6-14.3l0,0l21.3,10.5l0,0l-19.7,32.6h6.3l12.6-20.8l0-0.1l2.4,20.9h5.4
		l-0.8-6.7l12.9-0.8l0,0l-2.6,7.5h5.7l2.8-7.9l25.2-1.6l0,0l-2,8.2l-11.7,1.2h17l2.4-9.8l7.9-0.5V93.7z M108.7,21.6L98.6,50.3l0,0
		L86.7,45l16.8-27.8L108.7,21.6z M72.9,16.7l19.1,9L81.7,42.8l0,0l-20.2-9L72.9,16.7z M50.4,34.8L50.4,34.8l3,1.3l-6.6,9.8L46.8,46
		L50.4,34.8z M24.3,52.7C24.3,52.7,24.3,52.8,24.3,52.7L24.3,52.7L4.7,46.4l3.1-10.1l0,0c6.5,0.5,11.1,2.7,13.7,6.5
		c0.4,0.6,0.7,1.2,1,1.8C23.8,47.2,24.3,50.1,24.3,52.7z M28.3,69L28.3,69l-0.1,0.1l-6.5,20.2l-0.1,0.3l6.7-27
		c0.4-1.3,4-13.8-2.4-22.9c-3.4-4.9-9-7.8-16.6-8.7l0.5-1.8c2.5-0.2,5.2,0.2,8.2,1.2c5.8,2,9.9,5.4,12,10.3
		c3.2,7.3,1.8,16.4,0.2,22.3C29.3,66.5,28.3,68.9,28.3,69z M37,58.9l-0.2-0.1c1-6.1,1.2-13.7-1.7-20.3c-2.8-6.3-7.9-10.8-15.3-13.2
		c-2.9-1-5.7-1.5-8.3-1.5l1.7-5.6l32.2,14.3L37,58.9z M42.8,61.7l15.6-23.4l0,0l20.4,9.1L64,72.1L42.8,61.7z M82.3,96.3l-15.5,1l0,0
		L65,80.9l18.9-31.2l12.9,5.7L82.3,96.3z M112.8,94.4L88.2,96l13.5-38.3l0,0l18.1,8.1L112.8,94.4z"/>
	<path fill="#252525" d="M63.1,57.2c-1.6,0-2.9,1.3-2.9,2.9c0,0.6,0.2,1.1,0.4,1.5l2.5,3.8l2.3-3.7c0.3-0.5,0.5-1,0.5-1.7
		C66,58.4,64.7,57.2,63.1,57.2z M63.1,60.9c-0.5,0-0.8-0.4-0.8-0.8c0-0.5,0.4-0.8,0.8-0.8c0.5,0,0.8,0.4,0.8,0.8
		C63.9,60.5,63.6,60.9,63.1,60.9z"/>
</g>
<g>
	<g>
		
			<text transform="matrix(0.3258 -0.9454 0.9454 0.3258 92.054 79.7991)" fill="#666156" font-family="'HelveticaNeue-Medium'" font-size="2.5789">new st</text>
	</g>
	<g>
		
			<text transform="matrix(0.2454 -0.9694 0.9694 0.2454 118.6014 85.4956)" fill="#666156" font-family="'HelveticaNeue-Medium'" font-size="2.5787">broad st</text>
	</g>
	<g>
		
			<text transform="matrix(0.5174 -0.8558 0.8558 0.5174 71.5718 66.3864)" fill="#666156" font-family="'HelveticaNeue-Medium'" font-size="2.5789">broadway</text>
	</g>
	<g>
		
			<text transform="matrix(0.5583 -0.8296 0.8296 0.5583 46.6931 53.0873)" fill="#666156" font-family="'HelveticaNeue-Medium'" font-size="2.5787">trinity pl</text>
	</g>
	<g>
		
			<text transform="matrix(0.3115 -0.9503 0.9503 0.3115 47.7566 36.7018)" fill="#666156" font-family="'HelveticaNeue-Medium'" font-size="2.5789">greenwich st</text>
	</g>
	<g>
		
			<text transform="matrix(0.3115 -0.9503 0.9503 0.3115 23.3243 95.042)" fill="#666156" font-family="'HelveticaNeue-Medium'" font-size="2.5789">hugh l. carey tunnel</text>
	</g>
	<g>
		
			<text transform="matrix(0.9158 0.4017 -0.4017 0.9158 62.6457 38.1602)" fill="#666156" font-family="'HelveticaNeue-Medium'" font-size="2.5786">exchange pl</text>
	</g>
	<g>
		
			<text transform="matrix(0.9082 0.4186 -0.4186 0.9082 77.8299 17.4961)" fill="#666156" font-family="'HelveticaNeue-Medium'" font-size="2.5789">rector st</text>
	</g>
	<g>
		
			<text transform="matrix(0.7596 0.6504 -0.6504 0.7596 107.6971 18.4944)" fill="#666156" font-family="'HelveticaNeue-Medium'" font-size="2.5788">wall st</text>
	</g>
	<g>
		
			<text transform="matrix(0.8944 0.4473 -0.4473 0.8944 46.4388 67.4133)" fill="#666156" font-family="'HelveticaNeue-Medium'" font-size="2.5788">morris st</text>
	</g>
	<g>
		
			<text transform="matrix(0.9982 -5.951151e-02 5.951151e-02 0.9982 77.4022 100.4868)" fill="#666156" font-family="'HelveticaNeue-Medium'" font-size="2.5787">beaver st</text>
	</g>
</g>
</svg>
