<?xml version="1.0" encoding="utf-8"?>
<!-- Generator: Adobe Illustrator 18.1.1, SVG Export Plug-In . SVG Version: 6.00 Build 0)  -->
<svg version="1.1" xmlns="http://www.w3.org/2000/svg" xmlns:xlink="http://www.w3.org/1999/xlink" x="0px" y="0px"
	 viewBox="0 0 1280 452" enable-background="new 0 0 1280 452" xml:space="preserve">
<g id="Layer_1">
	<rect fill="#11B2D3" width="1280" height="452"/>
	<line opacity="0.3" fill="none" stroke="#FFFFFF" stroke-miterlimit="10" x1="0" y1="0.2" x2="0" y2="451.9"/>
	<line opacity="0.3" fill="none" stroke="#FFFFFF" stroke-miterlimit="10" x1="31.2" y1="0.2" x2="31.2" y2="451.9"/>
	<line opacity="0.3" fill="none" stroke="#FFFFFF" stroke-miterlimit="10" x1="62.4" y1="0.2" x2="62.4" y2="451.9"/>
	<line fill="none" stroke="#FFFFFF" stroke-miterlimit="10" x1="93.7" y1="0.2" x2="93.7" y2="451.9"/>
	<line opacity="0.3" fill="none" stroke="#FFFFFF" stroke-miterlimit="10" x1="124.9" y1="0.2" x2="124.9" y2="451.9"/>
	<line opacity="0.3" fill="none" stroke="#FFFFFF" stroke-miterlimit="10" x1="156.1" y1="0.2" x2="156.1" y2="451.9"/>
	<line opacity="0.3" fill="none" stroke="#FFFFFF" stroke-miterlimit="10" x1="187.3" y1="0.2" x2="187.3" y2="451.9"/>
	<line opacity="0.3" fill="none" stroke="#FFFFFF" stroke-miterlimit="10" x1="218.5" y1="0.2" x2="218.5" y2="451.9"/>
	<line opacity="0.3" fill="none" stroke="#FFFFFF" stroke-miterlimit="10" x1="249.8" y1="0.2" x2="249.8" y2="451.9"/>
	<line opacity="0.3" fill="none" stroke="#FFFFFF" stroke-miterlimit="10" x1="281" y1="0.2" x2="281" y2="451.9"/>
	<line fill="none" stroke="#FFFFFF" stroke-miterlimit="10" x1="312.2" y1="0.2" x2="312.2" y2="451.9"/>
	<line opacity="0.3" fill="none" stroke="#FFFFFF" stroke-miterlimit="10" x1="343.4" y1="0.2" x2="343.4" y2="451.9"/>
	<line opacity="0.3" fill="none" stroke="#FFFFFF" stroke-miterlimit="10" x1="374.6" y1="0.2" x2="374.6" y2="451.9"/>
	<line opacity="0.3" fill="none" stroke="#FFFFFF" stroke-miterlimit="10" x1="405.9" y1="0.2" x2="405.9" y2="451.9"/>
	<line opacity="0.3" fill="none" stroke="#FFFFFF" stroke-miterlimit="10" x1="437.1" y1="0.2" x2="437.1" y2="451.9"/>
	<line opacity="0.3" fill="none" stroke="#FFFFFF" stroke-miterlimit="10" x1="468.3" y1="0.2" x2="468.3" y2="451.9"/>
	<line opacity="0.3" fill="none" stroke="#FFFFFF" stroke-miterlimit="10" x1="499.5" y1="0.2" x2="499.5" y2="451.9"/>
	<line fill="none" stroke="#FFFFFF" stroke-miterlimit="10" x1="530.7" y1="0.2" x2="530.7" y2="451.9"/>
	<line opacity="0.3" fill="none" stroke="#FFFFFF" stroke-miterlimit="10" x1="562" y1="0.2" x2="562" y2="451.9"/>
	<line opacity="0.3" fill="none" stroke="#FFFFFF" stroke-miterlimit="10" x1="593.2" y1="0.2" x2="593.2" y2="451.9"/>
	<line opacity="0.3" fill="none" stroke="#FFFFFF" stroke-miterlimit="10" x1="624.4" y1="0.2" x2="624.4" y2="451.9"/>
	<line opacity="0.3" fill="none" stroke="#FFFFFF" stroke-miterlimit="10" x1="655.6" y1="0.2" x2="655.6" y2="451.9"/>
	<line opacity="0.3" fill="none" stroke="#FFFFFF" stroke-miterlimit="10" x1="686.8" y1="0.2" x2="686.8" y2="451.9"/>
	<line opacity="0.3" fill="none" stroke="#FFFFFF" stroke-miterlimit="10" x1="718" y1="0.2" x2="718" y2="451.9"/>
	<line fill="none" stroke="#FFFFFF" stroke-miterlimit="10" x1="749.3" y1="0.2" x2="749.3" y2="451.9"/>
	<line opacity="0.3" fill="none" stroke="#FFFFFF" stroke-miterlimit="10" x1="780.5" y1="0.2" x2="780.5" y2="451.9"/>
	<line opacity="0.3" fill="none" stroke="#FFFFFF" stroke-miterlimit="10" x1="811.7" y1="0.2" x2="811.7" y2="451.9"/>
	<line opacity="0.3" fill="none" stroke="#FFFFFF" stroke-miterlimit="10" x1="842.9" y1="0.2" x2="842.9" y2="451.9"/>
	<line opacity="0.3" fill="none" stroke="#FFFFFF" stroke-miterlimit="10" x1="874.1" y1="0.2" x2="874.1" y2="451.9"/>
	<line opacity="0.3" fill="none" stroke="#FFFFFF" stroke-miterlimit="10" x1="905.4" y1="0.2" x2="905.4" y2="451.9"/>
	<line opacity="0.3" fill="none" stroke="#FFFFFF" stroke-miterlimit="10" x1="936.6" y1="0.2" x2="936.6" y2="451.9"/>
	<line fill="none" stroke="#FFFFFF" stroke-miterlimit="10" x1="967.8" y1="0.2" x2="967.8" y2="451.9"/>
	<line opacity="0.3" fill="none" stroke="#FFFFFF" stroke-miterlimit="10" x1="999" y1="0.2" x2="999" y2="451.9"/>
	<line opacity="0.3" fill="none" stroke="#FFFFFF" stroke-miterlimit="10" x1="1030.2" y1="0.2" x2="1030.2" y2="451.9"/>
	<line opacity="0.3" fill="none" stroke="#FFFFFF" stroke-miterlimit="10" x1="1061.5" y1="0.2" x2="1061.5" y2="451.9"/>
	<line opacity="0.3" fill="none" stroke="#FFFFFF" stroke-miterlimit="10" x1="1092.7" y1="0.2" x2="1092.7" y2="451.9"/>
	<line opacity="0.3" fill="none" stroke="#FFFFFF" stroke-miterlimit="10" x1="1123.9" y1="0.2" x2="1123.9" y2="451.9"/>
	<line opacity="0.3" fill="none" stroke="#FFFFFF" stroke-miterlimit="10" x1="1155.1" y1="0.2" x2="1155.1" y2="451.9"/>
	<line fill="none" stroke="#FFFFFF" stroke-miterlimit="10" x1="1186.3" y1="0.2" x2="1186.3" y2="451.9"/>
	<line opacity="0.3" fill="none" stroke="#FFFFFF" stroke-miterlimit="10" x1="1217.6" y1="0.2" x2="1217.6" y2="451.9"/>
	<line opacity="0.3" fill="none" stroke="#FFFFFF" stroke-miterlimit="10" x1="1248.8" y1="0.2" x2="1248.8" y2="451.9"/>
	<line opacity="0.3" fill="none" stroke="#FFFFFF" stroke-miterlimit="10" x1="1280" y1="0.2" x2="1280" y2="451.9"/>
	<line opacity="0.3" fill="none" stroke="#FFFFFF" stroke-miterlimit="10" x1="0" y1="0" x2="1280" y2="0"/>
	<line opacity="0.3" fill="none" stroke="#FFFFFF" stroke-miterlimit="10" x1="0" y1="56.5" x2="1280" y2="56.5"/>
	<line opacity="0.3" fill="none" stroke="#FFFFFF" stroke-miterlimit="10" x1="0" y1="77" x2="1280" y2="77"/>
	<line opacity="0.3" fill="none" stroke="#FFFFFF" stroke-miterlimit="10" x1="0" y1="139.5" x2="1280" y2="139.5"/>
	<line opacity="0.3" fill="none" stroke="#FFFFFF" stroke-miterlimit="10" x1="0" y1="202" x2="1280" y2="202"/>
	<line opacity="0.3" fill="none" stroke="#FFFFFF" stroke-miterlimit="10" x1="0" y1="264.5" x2="1280" y2="264.5"/>
	<line opacity="0.3" fill="none" stroke="#FFFFFF" stroke-miterlimit="10" x1="0" y1="327" x2="1280" y2="327"/>
	<line opacity="0.3" fill="none" stroke="#FFFFFF" stroke-miterlimit="10" x1="0" y1="389.5" x2="1280" y2="389.5"/>
	<line opacity="0.3" fill="none" stroke="#FFFFFF" stroke-miterlimit="10" x1="0" y1="452" x2="1280" y2="452"/>
	<polyline fill="none" stroke="#FFFFFF" stroke-width="3" stroke-miterlimit="10" points="88.6,444.7 93.9,449.9 99.2,444.6 	"/>
	<polyline fill="none" stroke="#FFFFFF" stroke-width="3" stroke-miterlimit="10" points="306.5,444.7 311.8,449.9 317.1,444.6 	"/>
	<polyline fill="none" stroke="#FFFFFF" stroke-width="3" stroke-miterlimit="10" points="525.4,444.7 530.6,449.9 536,444.6 	"/>
	<polyline fill="none" stroke="#FFFFFF" stroke-width="3" stroke-miterlimit="10" points="744.3,444.7 749.5,449.9 754.9,444.6 	"/>
	<polyline fill="none" stroke="#FFFFFF" stroke-width="3" stroke-miterlimit="10" points="962.2,444.7 967.4,449.9 972.7,444.6 	"/>
	<polyline fill="none" stroke="#FFFFFF" stroke-width="3" stroke-miterlimit="10" points="1181.1,444.7 1186.3,449.9 1191.6,444.6 	
		"/>
	<g>
		<defs>
			<rect id="SVGID_1_" width="1280" height="452"/>
		</defs>
		<clipPath id="SVGID_2_">
			<use xlink:href="#SVGID_1_"  overflow="visible"/>
		</clipPath>
		<path opacity="0.5" clip-path="url(#SVGID_2_)" fill="none" stroke="#FFFFFF" stroke-miterlimit="10" d="M1279.6,263
			c-0.9,76.8-1.8,54.2-2.6,131.1c-0.9-61.4-1.8-23.4-2.6-84.9c-0.9-12.5-1.8-25-2.6-37.5c-0.9,104.8-1.8,110.3-2.6,215.1
			c-0.9-43.8-1.8-87.6-2.6-131.4c-0.9,7.2-1.8,14.3-2.6,21.5c-0.9-70.3-1.8-41.2-2.6-111.5c-0.9-8.5-1.8-16.9-2.6-25.4
			c-0.9,88.6-1.8,77.8-2.6,166.5c-0.9-74.5-1.8-49.6-2.6-124.2c-0.9,94.3-1.8,34.9-2.6,129.1c-0.9-34.7-1.8-15.1-2.6-49.8
			c-0.9,5.6-1.8,11.2-2.6,16.8c-0.9-9.6-1.8-19.3-2.6-28.9c-0.9-47.2-1.8,5.1-2.6-42.1c-0.9,88.6-1.8,23.5-2.6,112.1
			c-0.9-100.7-1.8-47.8-2.6-148.5c-0.9,54.5-1.8,9.6-2.6,64.1c-0.9,19.8-1.8,39.5-2.6,59.3c-0.9-76.5-1.8-53.5-2.6-130
			c-0.9,5.8-1.8,11.6-2.6,17.4c-0.9,21.9-1.8-55.7-2.7-33.9c-0.9,64.1-1.8,73.9-2.7,138c-0.9,5.6-1.8,11.2-2.7,16.8
			c-0.9-83.7-1.8-13.8-2.7-97.5c-0.9-10.5-1.8-20.9-2.7-31.4c-0.9,94.3-1.8,34.8-2.7,129.1c-0.9-21.1-1.8,12-2.7-9.2
			c-0.9-9.5-1.8-19-2.7-28.4c-0.9-72.3-1.8-45.1-2.7-117.4c-0.9-1.4-1.8-2.8-2.7-4.2c-0.9,71.2-1.8,43.1-2.7,114.3
			c-0.9,14.3-1.8,28.6-2.7,42.8c-0.9,24-1.8-6.3-2.7,17.6c-0.9-108-1.8-62.3-2.7-170.3c-0.9,3.1-1.8,6.1-2.7,9.2
			c-0.9-9.9-1.8-19.8-2.7-29.7c-0.9,102.8-1.8,52-2.7,154.8c-0.9-110.6-1.8-67.5-2.7-178.1c-0.9,32.4-1.8,64.8-2.7,97.2
			c-0.9,53.8-1.8,8.1-2.7,61.9c-0.9-12.4-1.8-24.9-2.6-37.3c-0.9-0.7-1.8-1.3-2.6-2c-0.9-42-1.8,15.5-2.6-26.5
			c-0.9,87.1-1.8,74.9-2.6,162c-0.9-45-1.8-90-2.6-135c-0.9-31.3-1.8-62.5-2.6-93.8c-0.9,43.3-1.8,86.7-2.6,130
			c-0.9-32.1-1.8-64.1-2.6-96.2c-0.9,65.9-1.8,131.8-2.6,197.6c-0.9-104.3-1.8-109.2-2.6-213.5c-0.9,52.1-1.8,4.7-2.6,56.7
			c-0.9,40.7-1.8,81.4-2.6,122c-0.9-10.8-1.8-21.6-2.6-32.4c-0.9-39.5-1.8-79-2.6-118.5c-0.9-11-1.8-22-2.6-33.1
			c-0.9,34.3-1.8,68.6-2.6,102.9c-0.9-46.1-1.8-92.2-2.6-138.3c-0.9-31.6-1.8-63.2-2.6-94.7c-0.9,93.9-1.8,187.8-2.6,281.8
			c-0.9-41-1.8-82-2.6-123c-0.9,4.7-1.8,9.4-2.6,14c-0.9,15.6-1.8,31.2-2.6,46.8c-0.9-19.7-1.8-39.4-2.6-59
			c-0.9-25.5-1.8-51-2.6-76.6c-0.9,45.5-1.8,90.9-2.6,136.4c-0.9,10.9-1.8,21.8-2.6,32.6c-0.9,19.2-1.8,38.4-2.6,57.6
			c-0.9-76.3-1.8-152.6-2.6-228.9c-0.9,68.9-1.8,137.7-2.6,206.6c-0.9-19-1.8-37.9-2.6-56.9c-0.9-75.5-1.8-150.9-2.6-226.4
			c-0.9,89.8-1.8,179.6-2.6,269.5c-0.9-29.9-1.8-59.7-2.6-89.6c-0.9,3.3-1.8,6.5-2.6,9.8c-0.9-15.2-1.8-30.4-2.6-45.5
			c-0.9,45.6-1.8,91.2-2.6,136.8c-0.9-51.6-1.8-103.2-2.6-154.8c-0.9-35.2-1.8-70.3-2.6-105.5c-0.9,20.5-1.8,41.1-2.6,61.6
			c-0.9-9.3-1.8-18.6-2.6-27.8c-0.9,29.4-1.8,58.7-2.6,88.1c-0.9-32-1.8-64.1-2.6-96.1c-0.9,31.6-1.8,63.1-2.6,94.7
			c-0.9-34.6-1.8-69.2-2.6-103.7c-0.9,82.9-1.8,165.8-2.6,248.7c-0.9-24.4-1.8-48.7-2.6-73.1c-0.9-41.3-1.8-82.7-2.6-124
			c-0.9-20.9-1.8-41.8-2.6-62.7c-0.9-20-1.8-39.9-2.6-59.9c-0.9,10.2-1.8,20.3-2.6,30.5c-0.9,55.2-1.8,110.3-2.6,165.5
			c-0.9,20.2-1.8,40.3-2.6,60.5c-0.9,29-1.8,58-2.6,86.9c-0.9-6.1-1.8-12.3-2.6-18.4c-0.9-90-1.8-180.1-2.6-270.1
			c-0.9,24.6-1.8,49.1-2.6,73.7c-0.9-22.8-1.8-45.6-2.6-68.3c-0.9,49.7-1.8,99.4-2.6,149.1c-0.9-37.4-1.8-74.9-2.6-112.3
			c-0.9,3.4-1.8,6.8-2.6,10.2c-0.9,50.9-1.8,101.9-2.6,152.8c-0.9-18.5-1.8-37-2.6-55.5c-0.9-27.3-1.8-54.5-2.6-81.8
			c-0.9,36.3-1.8,72.7-2.6,109c-0.9-25.4-1.8-50.9-2.6-76.3c-0.9-14.9-1.8-29.8-2.6-44.7c-0.9,13.1-1.8,26.2-2.6,39.3
			c-0.9-38.4-1.8-76.8-2.6-115.2c-0.9,58.3-1.8,116.7-2.6,175c-0.9-46.7-1.8-93.3-2.6-140c-0.9,51.1-1.8,102.2-2.6,153.4
			c-0.9-50.1-1.8-100.2-2.6-150.3c-0.9,50.2-1.8,100.3-2.6,150.5c-0.9-81-1.8-161.9-2.6-242.9c-0.9,110.9-1.8,221.8-2.6,332.6
			c-0.9-58.4-1.8-116.8-2.6-175.2c-0.9-37.2-1.8-74.5-2.6-111.7c-0.9-13.3-1.8-26.7-2.6-40c-0.9,42-1.8,84.1-2.6,126.1
			c-0.9-1-1.8-1.9-2.6-2.9c-0.9,53.6-1.8,107.3-2.6,160.9c-0.9-47.9-1.8-95.9-2.7-143.8c-0.9,22.7-1.8,45.5-2.7,68.2
			c-0.9-77-1.8-154-2.7-231c-0.9,96.2-1.8,192.3-2.7,288.5c-0.9-77.6-1.8-155.2-2.7-232.9c-0.9,84-1.8,167.9-2.7,251.9
			c-0.9-61.4-1.8-122.9-2.7-184.3c-0.9,55.5-1.8,111-2.7,166.5c-0.9-85.4-1.8-170.7-2.7-256.1c-0.9,28-1.8,56-2.7,83.9
			c-0.9,59.2-1.8,118.3-2.7,177.5c-0.9-36.6-1.8-73.2-2.7-109.9c-0.9-8.3-1.8-16.7-2.7-25c-0.9,3.6-1.8,7.2-2.7,10.8
			c-0.9,56.8-1.8,113.7-2.7,170.5c-0.9-5.8-1.8-11.6-2.7-17.3c-0.9-98.8-1.8-197.6-2.7-296.4c-0.9,25.6-1.8,51.2-2.7,76.7
			c-0.9-7.1-1.8-14.2-2.7-21.3c-0.9,18-1.8,35.9-2.7,53.9c-0.9,23.5-1.8,47-2.7,70.5c-0.9-65.3-1.8-130.5-2.7-195.8
			c-0.9,28.3-1.8,56.6-2.7,85c-0.9,2.1-1.8,4.2-2.7,6.3c-0.9,2.1-1.8,4.3-2.7,6.4c-0.9,60.7-1.8,121.4-2.7,182.1
			c-0.9-38.8-1.8-77.6-2.7-116.5c-0.9,44.5-1.8,88.9-2.7,133.4c-0.9-52.1-1.8-104.2-2.7-156.3c-0.9,11.7-1.8,23.4-2.7,35.1
			c-0.9,49.4-1.8,98.8-2.7,148.2c-0.9-71-1.8-142-2.6-213c-0.9-25.9-1.8-51.9-2.6-77.8c-0.9,48.8-1.8,97.7-2.6,146.5
			c-0.9-12.8-1.8-25.6-2.6-38.4c-0.9-53-1.8-105.9-2.6-158.9c-0.9,114.1-1.8,228.2-2.6,342.3c-0.9,1.1-1.8,2.2-2.6,3.4
			c-0.9-62.1-1.8-124.3-2.6-186.4c-0.9,38.5-1.8,77-2.6,115.4c-0.9-40.9-1.8-81.8-2.6-122.7c-0.9,55.5-1.8,111.1-2.6,166.6
			c-0.9-1.9-1.8-3.8-2.6-5.7c-0.9-17.3-1.8-34.5-2.6-51.8c-0.9-57.3-1.8-114.6-2.6-171.8c-0.9-17.5-1.8-35-2.6-52.5
			c-0.9,21.8-1.8,43.6-2.6,65.4c-0.9,37.9-1.8,75.8-2.6,113.7c-0.9,31.7-1.8,63.4-2.6,95.1c-0.9-102.9-1.8-205.8-2.6-308.7
			c-0.9,4.2-1.8,8.3-2.6,12.5c-0.9,69.3-1.8,138.7-2.6,208c-0.9-28.4-1.8-56.9-2.6-85.3c-0.9-20-1.8-40.1-2.6-60.1
			c-0.9-7.7-1.8-15.4-2.6-23.1c-0.9,21.2-1.8,42.4-2.6,63.6c-0.9,53.9-1.8,107.9-2.6,161.8c-0.9-86.1-1.8-172.2-2.6-258.3
			c-0.9,93.2-1.8,186.4-2.6,279.5c-0.9-104.8-1.8-272.8-2.6-377.6c-0.9,14.2-1.8,91.8-2.6,106c-0.9,25.9-1.8,51.8-2.6,77.7
			c-0.9,39.2-1.8,78.5-2.6,117.7c-0.9-7.2-1.8-14.4-2.6-21.6c-0.9-37-1.8-74-2.6-111c-0.9,77.7-1.8,155.3-2.6,233
			c-0.9-7.4-1.8-14.7-2.6-22.1c-0.9-45.2-1.8-90.4-2.6-135.6c-0.9-28.1-1.8-56.1-2.7-84.2c-0.9,39.5-1.8,79-2.7,118.5
			c-0.9-49.2-1.8-98.5-2.7-147.7c-0.9,69.9-1.8,139.8-2.7,209.7c-0.9-3.3-1.8-6.6-2.7-9.9c-0.9,24.1-1.8,48.3-2.7,72.4
			c-0.9-72.2-1.8-144.4-2.7-216.6c-0.9,54.2-1.8,108.3-2.7,162.5c-0.9-33.6-1.8-67.2-2.7-100.8c-0.9,13.7-1.8,27.4-2.7,41.1
			c-0.9,2.2-1.8,4.4-2.7,6.5c-0.9,6.4-1.8,12.8-2.7,19.2c-0.9-6.5-1.8-13.1-2.7-19.6c-0.9,11.4-1.8,22.9-2.7,34.3
			c-0.9-62.8-1.8-125.7-2.7-188.5c-0.9-23.6-1.8-47.2-2.7-70.8c-0.9,41.1-1.8,82.1-2.7,123.2c-0.9,17.3-1.8,34.5-2.7,51.8
			C727.8,143,727,75,726.1,7.1c-0.9,12.2-1.8,24.3-2.7,36.5c-0.9-11.7-1.8-23.4-2.7-35.2c-0.9,89-1.8,178.1-2.7,267.1
			c-0.9-9.8-1.8-19.6-2.7-29.5c-0.9-38.5-1.8-76.9-2.7-115.4c-0.9,47.4-1.8,94.9-2.7,142.3c-0.9,11.5-1.8,22.9-2.7,34.4
			c-0.9-45.3-1.8-90.7-2.7-136c-0.9,30.2-1.8,60.3-2.7,90.5c-0.9,6.3-1.8,12.5-2.7,18.8c-0.9-54.5-1.8-109.1-2.7-163.6
			c-0.9,43-1.8,86.1-2.7,129.1c-0.9,14.5-1.8,28.9-2.7,43.4c-0.9-36.9-1.8-73.8-2.7-110.7c-0.9-24.5-1.8-49-2.7-73.5
			c-0.9-17.3-1.8-34.6-2.7-51.9c-0.9,62.2-1.8,124.3-2.7,186.5c-0.9-81.9-1.8-199.9-2.7-281.8c-0.9,51.5-1.8,139.2-2.7,190.8
			c-0.9,33-1.8,66-2.7,99c-0.9,14.9-1.8,29.7-2.7,44.6c-0.9-98.7-1.8-233.6-2.7-332.3c-0.9,93.5-1.8,223.1-2.7,316.5
			c-0.9,22.7-1.8,45.4-2.7,68.1c-0.9-60.6-1.8-121.2-2.7-181.8c-0.9-25.8-1.8-51.6-2.7-77.4c-0.9,27.5-1.8,54.9-2.7,82.4
			c-0.9,57.6-1.8,187.6-2.7,245.3c-0.9-111.3-1.8-331.1-2.7-442.5c-0.9,59.1-1.8,154.3-2.7,213.4c-0.9,15.9-1.8,31.8-2.7,47.8
			c-0.9,15.1-1.8,30.1-2.7,45.2c-0.9,18.5-1.8,109.4-2.7,127.9c-0.9-80.5-1.8-233.2-2.7-313.7c-0.9,32.8-1.8,65.7-2.7,98.5
			c-0.9-1.1-1.8-2.2-2.7-3.4c-0.9-35.1-1.8-70.2-2.7-105.4c-0.9-13.6-1.8-27.2-2.7-40.8c-0.9,34.1-1.8,68.2-2.7,102.3
			c-0.9-17.6-1.8-35.3-2.7-52.9c-0.9-34.9-1.8-69.8-2.7-104.7c-0.9,21.5-1.8,43-2.7,64.5c-0.9-2.6-1.8-5.1-2.7-7.7
			c-0.9,72.5-1.8,145-2.7,217.5c-0.9-86.8-1.8-173.7-2.7-260.5c-0.9,14.9-1.8,29.8-2.7,44.6c-0.9,94.7-1.8,261.6-2.7,356.3
			c-0.9-7.2-1.8-14.5-2.7-21.7c-0.9-56.9-1.8-186.2-2.7-243.1c-0.9,61.3-1.8,195-2.7,256.4c-0.9-99.3-1.8-271-2.7-370.3
			c-0.9,82-1.8,164-2.7,246c-0.9-35.7-1.8-71.5-2.7-107.2c-0.9,33.4-1.8,66.8-2.7,100.2c-0.9-13.3-1.8-26.6-2.7-40
			c-0.9-61.6-1.8-123.2-2.7-184.8c-0.9,15.3-1.8,30.7-2.7,46c-0.9-8.2-1.8-16.4-2.7-24.6c-0.9-10.4-1.8-20.7-2.7-31.1
			c-0.9,91.4-1.8,182.9-2.7,274.3c-0.9-28.8-1.8-57.7-2.7-86.5c-0.9-70.2-1.8-140.4-2.7-210.5c-0.9,84-1.8,168-2.7,252
			c-0.9-7.8-1.8-15.7-2.7-23.5c-0.9-24.2-1.8-48.5-2.7-72.7c-0.9,39.2-1.8,78.4-2.7,117.6c-0.9-52.1-1.8-104.2-2.7-156.3
			c-0.9,49.5-1.8,99-2.7,148.5c-0.9,12.4-1.8,24.8-2.7,37.3c-0.9-29.4-1.8-58.9-2.7-88.3c-0.9-71.9-1.8-143.8-2.7-215.8
			c-0.9,15.9-1.8,31.8-2.7,47.7c-0.9-16.3-1.8-32.5-2.7-48.8c-0.9,3.6-1.8,7.1-2.7,10.7c-0.9,100.7-1.8,201.4-2.7,302.1
			c-0.9-31.2-1.8-62.3-2.7-93.5c-0.9-53.1-1.8-106.2-2.7-159.3c-0.9,8.4-1.8,16.7-2.7,25.1c-0.9,80.9-1.8,161.7-2.7,242.6
			c-0.9-106.1-1.8-212.2-2.7-318.3c-0.9,26.1-1.8,52.2-2.7,78.3c-0.9-22.2-1.8-44.4-2.7-66.7c-0.9,90.4-1.8,180.7-2.7,271.1
			c-0.9-79.8-1.8-159.7-2.7-239.5c-0.9,17.2-1.8,34.4-2.7,51.6c-0.9-14.6-1.8-29.1-2.7-43.7c-0.9,90.7-1.8,181.3-2.7,272
			c-0.9-71.8-1.8-143.6-2.7-215.4c-0.9,57.9-1.8,115.9-2.7,173.8c-0.9-105.4-1.8-228.9-2.7-334.3c-0.9,81.2-1.8,180.5-2.7,261.8
			c-0.9-35.1-1.8-70.1-2.7-105.2c-0.9,34.1-1.8,68.1-2.7,102.2c-0.9,4.8-1.8,9.6-2.7,14.3c-0.9-25.1-1.8-50.3-2.7-75.4
			c-0.9-61.8-1.8-141.7-2.7-203.5c-0.9,81.7-1.8,181.4-2.7,263.1c-0.9-1.1-1.8-2.2-2.7-3.4c-0.9-71.2-1.8-142.5-2.7-213.7
			c-0.9,26-1.8,52.1-2.7,78.1c-0.9-20.1-1.8-40.2-2.7-60.3c-0.9,93.1-1.8,186.1-2.7,279.2c-0.9-86.7-1.8-173.3-2.7-260
			c-0.9,26-1.8,52-2.7,78c-0.9,40.9-1.8,81.8-2.7,122.8c-0.9,24.4-1.8,48.7-2.7,73.1c-0.9-109-1.8-236.1-2.7-345.2
			c-0.9,67.2-1.8,152.4-2.7,219.5c-0.9-66.3-1.8-132.7-2.7-199c-0.9,25.2-1.8,50.3-2.7,75.5c-0.9,3.6-1.8,7.3-2.7,10.9
			c-0.9,46.2-1.8,92.5-2.7,138.7c-0.9,23.1-1.8,46.1-2.7,69.2c-0.9-87.1-1.8-174.2-2.7-261.4c-0.9,44.2-1.8,88.4-2.7,132.6
			c-0.9-36.4-1.8-72.8-2.7-109.2c-0.9,57.1-1.8,114.3-2.7,171.4c-0.9-49.2-1.8-98.4-2.7-147.7c-0.9,77.7-1.8,155.5-2.7,233.2
			c-0.9,1.4-1.8,2.8-2.7,4.3c-0.9-93.7-1.8-187.4-2.7-281c-0.9,101.6-1.8,203.1-2.7,304.7c-0.9-116-1.8-232-2.7-348
			c-0.9,51.8-1.8,103.6-2.7,155.4c-0.9,26.4-1.8,52.8-2.7,79.2c-0.9-27.8-1.8-55.6-2.7-83.3c-0.9-49.2-1.8-98.4-2.7-147.6
			c-0.9,5.2-1.8,10.3-2.7,15.5c-0.9,55.8-1.8,111.6-2.7,167.4c-0.9,20.9-1.8,41.8-2.6,62.7c-0.9-37.9-1.8-75.8-2.6-113.7
			c-0.9,12.9-1.8,25.8-2.6,38.7c-0.9,5.3-1.8,10.6-2.6,16c-0.9,30.6-1.8,61.2-2.6,91.8c-0.9-21.6-1.8-43.1-2.6-64.7
			c-0.9-62.9-1.8-125.8-2.6-188.6c-0.9,106.9-1.8,213.8-2.6,320.6c-0.9-13.8-1.8-27.6-2.6-41.4c-0.9,6.6-1.8,13.1-2.6,19.7
			c-0.9-84.1-1.8-168.2-2.6-252.2c-0.9,76.9-1.8,153.9-2.6,230.8c-0.9-22.9-1.8-45.7-2.6-68.6c-0.9-52-1.8-104.1-2.6-156.1
			c-0.9,23.4-1.8,46.7-2.6,70.1c-0.9,31.5-1.8,63-2.6,94.5c-0.9-57.6-1.8-115.1-2.6-172.7c-0.9,65-1.8,130-2.6,195.1
			c-0.9-34.8-1.8-69.7-2.6-104.5c-0.9-17-1.8-34.1-2.6-51.1c-0.9,76.6-1.8,153.2-2.7,229.7c-0.9-117.5-1.8-235-2.7-352.5
			c-0.9,121-1.8,242.1-2.7,363.1c-0.9-91.4-1.8-182.8-2.7-274.1c-0.9-1.8-1.8-3.5-2.7-5.3c-0.9-17.7-1.8-216.3-2.7-234
			c-0.9,62.5-1.8,305.7-2.7,368.2c-0.9,36-1.8,72-2.7,108c-0.9-32.3-1.8-64.6-2.7-96.9c-0.9,42.8-1.8,85.7-2.7,128.5
			c-0.9-71.5-1.8-323.8-2.7-395.3c-0.9,3.3-1.8,187.5-2.7,190.8c-0.9,34.5-1.8,69.1-2.7,103.6c-0.9-73.4-1.8-327.7-2.7-401.1
			c-0.9,48.3-1.8,277.5-2.7,325.8c-0.9-4.7-1.8-9.5-2.7-14.2c-0.9,30.5-1.8,61.1-2.7,91.6c-0.9,3.9-1.8,7.9-2.7,11.8
			c-0.9-2.4-1.8-4.8-2.7-7.2c-0.9-79.5-1.8-339.9-2.7-419.4c-0.9-8.1-1.8-16.2-2.7-24.4c-0.9,114-1.8,408.9-2.7,522.9
			c-0.9,4.5-1.8,9.1-2.7,13.6c-0.9-21.3-1.8-42.6-2.7-63.9c-0.9-23.2-1.8-46.5-2.7-69.7c-0.9,14.2-1.8,28.4-2.7,42.6
			c-0.9-30.5-1.8-61-2.7-91.5c-0.9,40.9-1.8,81.8-2.7,122.7c-0.9-27.4-1.8-54.8-2.7-82.2c-0.9-22.5-1.8-45-2.7-67.6
			c-0.9,1.6-1.8,3.2-2.7,4.8c-0.9-44.2-1.8-269.2-2.7-313.3c-0.9,93.5-1.8,367.8-2.7,461.3c-0.9-51.5-1.8-103-2.7-154.5
			c-0.9-43-1.8-266.8-2.7-309.8c-0.9,58.2-1.8,297.2-2.7,355.4c-0.9,34.5-1.8,68.9-2.7,103.4c-0.9-11.4-1.8-22.8-2.7-34.3
			c-0.9,31.3-1.8,62.6-2.7,93.8c-0.9-80.6-1.8-342.1-2.7-422.7c-0.9,80.5-1.8,341.9-2.7,422.4c-0.9-72.9-1.8-326.5-2.7-399.4
			c-0.9,14.5-1.8,209.7-2.7,224.2c-0.9,45-1.8,89.9-2.7,134.9c-0.9-77.2-1.8-335.3-2.7-412.5c-0.9,86.4-1.8,353.6-2.7,440
			c-0.9,0.8-1.8,1.7-2.7,2.5c-0.9-4.8-1.8-9.7-2.7-14.5c-0.9-76.2-1.8-333.2-2.7-409.3c-0.9,9.3-1.8,18.5-2.7,27.8
			c-0.9,39.4-1.8,259.6-2.7,298.9c-0.9-23.6-1.8-47.3-2.7-70.9c-0.9-25.5-1.8-231.8-2.7-257.4c-0.9,18.8-1.8,218.3-2.7,237.1
			c-0.9,35.7-1.8,71.3-2.7,107c-0.9-3.3-1.8-6.5-2.7-9.8c-0.9-33.2-1.8-66.5-2.7-99.7c-0.9,71.4-1.8,124.7-2.7,196.1
			c-0.9-17.4-1.8-16.7-2.7-34.1c-0.9-67.2-1.8-315.2-2.7-382.4c-0.9-13.4-1.8-26.8-2.7-40.3c-0.9-8.1-1.8-16.2-2.7-24.4
			c-0.9,103.4-1.8,369.5-2.7,472.9c-0.9-94.6-1.8-351.8-2.7-446.4c-0.9,56.1-1.8,293.1-2.7,349.2c-0.9-5.6-1.8-11.2-2.7-16.8
			c-0.9-3.3-1.8-6.5-2.7-9.8c-0.9-6.3-1.8-12.6-2.7-18.9c-0.9-3.1-1.8-6.3-2.7-9.4c-0.9,24.6-1.8,49.1-2.7,73.7
			c-0.9-53.7-1.8-288.2-2.7-341.9c-0.9,42-1.8,264.8-2.7,306.8c-0.9-16.5-1.8-32.9-2.7-49.4c-0.9,35.7-1.8,71.5-2.7,107.2
			c-0.9,29.3-1.8,40.6-2.7,70c-0.9-53.5-1.8-88.9-2.7-142.4c-0.9,15.9-1.8,31.8-2.7,47.7c-0.9-19.1-1.8-38.1-2.7-57.2
			c-0.9-60.5-1.8-301.8-2.7-362.3c-0.9,65.9-1.8,312.6-2.7,378.5c-0.9-11.3-1.8-22.6-2.7-33.8c-0.9,29.2-1.8,58.4-2.7,87.7
			c-0.9-28.6-1.8-57.1-2.7-85.7c-0.9,44.3-1.8,88.6-2.7,132.9c-0.9-55.7-1.8-111.5-2.7-167.2c-0.9,35.1-1.8,70.3-2.7,105.4
			c-0.9,36-1.8,72-2.7,108C98.5,220,97.6-73.6,96.7-186.3c-0.9,90.4-1.8,361.7-2.7,452.1c-0.9,3.9-1.8,7.8-2.7,11.7
			c-0.9-9-1.8-18-2.7-27c-0.9-25.6-1.8-51.2-2.7-76.9c-0.9,44.8-1.8,89.6-2.7,134.3c-0.9-36.3-1.8-72.6-2.7-108.9
			c-0.9,8-1.8,16-2.7,23.9c-0.9,23.8-1.8,47.6-2.7,71.3c-0.9-27.2-1.8-54.4-2.7-81.6c-0.9,1-1.8,2-2.7,3
			c-0.9-59-1.8-298.7-2.7-357.7c-0.9-13.9-1.8-27.8-2.7-41.7C63.9-64.3,63,235.8,62.1,355.1c-0.9-19.6-1.8-39.2-2.7-58.8
			c-0.9-3.8-1.8-7.7-2.7-11.5C55.9,205.8,55-54,54.1-133c-0.9,43.7-1.8,268.1-2.7,311.8c-0.9-47.7-1.8-276.2-2.7-324
			c-0.9,63.4-1.8,307.7-2.7,371.1c-0.9-17.2-1.8-34.3-2.7-51.5c-0.9-19-1.8-38-2.7-57c-0.9,28.7-1.8,57.3-2.7,86
			c-0.9,10.4-1.8,20.9-2.7,31.3c-0.9,36.9-1.8,73.8-2.7,110.7c-0.9-36.4-1.8-72.8-2.7-109.2c-0.9-9.3-1.8-18.7-2.7-28
			c-0.9,26.7-1.8,53.4-2.7,80.2c-0.9-90.6-1.8-362-2.7-452.6c-0.9,112-1.8,404.8-2.7,516.8c-0.9-0.6-1.8-1.1-2.7-1.7
			c-0.9-14.2-1.8-28.3-2.7-42.5c-0.9-84.4-1.8-349.7-2.7-434.1c-0.9,74.6-1.8,330-2.7,404.6C7.8,237.4,7,195.8,6.1,154.3
			c-0.9,0.1-1.8,0.1-2.7,0.2C2.5,109.2,1.6-117,0.7-162.4"/>
	</g>
	<linearGradient id="SVGID_3_" gradientUnits="userSpaceOnUse" x1="640" y1="1156.2428" x2="640" y2="-479.7986">
		<stop  offset="0" style="stop-color:#FFFFFF"/>
		<stop  offset="1" style="stop-color:#000000"/>
	</linearGradient>
	<rect opacity="0.7" fill="url(#SVGID_3_)" width="1280" height="452"/>
</g>
<g id="Layer_2">
</g>
</svg>
