<?xml version="1.0" encoding="utf-8"?>
<!-- Generator: Adobe Illustrator 18.1.1, SVG Export Plug-In . SVG Version: 6.00 Build 0)  -->
<svg version="1.1" id="Layer_1" xmlns="http://www.w3.org/2000/svg" xmlns:xlink="http://www.w3.org/1999/xlink" x="0px" y="0px"
	 viewBox="0 0 1280 476.7" enable-background="new 0 0 1280 476.7" xml:space="preserve">
<g>
	<polygon fill="#FFFFFF" points="522.8,436.1 527.6,467.2 668.5,445.4 628.7,435.1 	"/>
	<path fill="#FFFFFF" d="M831.4,321.8l-0.3-1.9l64.4-233.6l-66.9-18.5V28.6h-42.5l-1.7-10.9l-70.5,10.9h-27.6l-101.6-28l-7.7,28
		h-70.8v32.1L465.7,67l36.2,233.9L477,391l29.1,8v34.5h279L636.7,435l132.4,36.5l18.8,5.2l11.9-43.1h28.8v-12.9l17.7-2.7
		L831.4,321.8z M867.6,102.2l-39,141.5V91.4L867.6,102.2z M600.5,28.5l0.3,0.1L600.5,28.5L600.5,28.5z M528.8,51.3h277.1v285H528.8
		V51.3z M506.1,83.7v95.9L491.6,86L506.1,83.7z"/>
	<polygon fill="#FFFFFF" points="600.5,28.5 600.5,28.6 600.8,28.6 	"/>
	<path fill="#FFFFFF" d="M553.7,170.7c0,11.9,9.7,21.7,21.7,21.7h65.3c11.9,0,21.7-9.7,21.7-21.7v-65.3c0-11.9-9.7-21.7-21.7-21.7
		h-65.3c-11.9,0-21.7,9.7-21.7,21.7V170.7z M575.4,92.3h65.3c7.2,0,13,5.8,13,13v65.3c0,7.2-5.8,13-13,13h-65.3c-7.2,0-13-5.8-13-13
		v-65.3C562.4,98.2,568.2,92.3,575.4,92.3z"/>
	<path fill="#FFFFFF" d="M672.3,105.3v65.3c0,11.9,9.7,21.7,21.7,21.7h65.3c11.9,0,21.7-9.7,21.7-21.7v-65.3
		c0-11.9-9.7-21.7-21.7-21.7H694C682,83.7,672.3,93.4,672.3,105.3z M772.3,105.3v65.3c0,7.2-5.8,13-13,13H694c-7.2,0-13-5.8-13-13
		v-65.3c0-7.2,5.8-13,13-13h65.3C766.5,92.3,772.3,98.2,772.3,105.3z"/>
	<path fill="#FFFFFF" d="M662.4,221.1c0-11.9-9.7-21.7-21.7-21.7h-65.3c-11.9,0-21.7,9.7-21.7,21.7v65.3c0,11.9,9.7,21.7,21.7,21.7
		h65.3c11.9,0,21.7-9.7,21.7-21.7V221.1z M562.4,286.4v-65.3c0-7.2,5.8-13,13-13h65.3c7.2,0,13,5.8,13,13v65.3c0,7.2-5.8,13-13,13
		h-65.3C568.2,299.4,562.4,293.6,562.4,286.4z"/>
	<path fill="#FFFFFF" d="M694,308.1h65.3c11.9,0,21.7-9.7,21.7-21.7v-65.3c0-11.9-9.7-21.7-21.7-21.7H694
		c-11.9,0-21.7,9.7-21.7,21.7v65.3C672.3,298.4,682,308.1,694,308.1z M772.3,221.1v65.3c0,7.2-5.8,13-13,13H694c-7.2,0-13-5.8-13-13
		v-65.3c0-7.2,5.8-13,13-13h65.3C766.5,208.1,772.3,213.9,772.3,221.1z"/>
</g>
<g>
	<path fill="#FFFFFF" d="M43.5,264c0,3.4-0.9,6.4-2.6,9.1c-1.7,2.6-4.2,4.7-7.5,6.2c-3.3,1.5-7.1,2.2-11.5,2.2
		c-3.7,0-6.7-0.3-9.2-0.8S7.7,279.3,5,278v-13.2c2.8,1.5,5.8,2.6,8.8,3.4c3.1,0.8,5.9,1.2,8.4,1.2c2.2,0,3.8-0.4,4.9-1.1
		c1-0.8,1.5-1.7,1.5-3c0-0.8-0.2-1.4-0.6-2s-1.1-1.1-2-1.7c-0.9-0.6-3.4-1.8-7.3-3.5c-3.6-1.6-6.3-3.2-8.1-4.7
		c-1.8-1.5-3.1-3.3-4-5.3c-0.9-2-1.3-4.3-1.3-7c0-5.1,1.8-9,5.5-11.8c3.7-2.8,8.7-4.2,15.2-4.2c5.7,0,11.5,1.3,17.4,3.9L39,240.4
		c-5.1-2.4-9.6-3.5-13.3-3.5c-1.9,0-3.3,0.3-4.2,1c-0.9,0.7-1.3,1.5-1.3,2.5c0,1.1,0.6,2,1.7,2.9c1.1,0.9,4.1,2.4,9.1,4.7
		c4.7,2.1,8,4.4,9.9,6.9C42.6,257.3,43.5,260.3,43.5,264z"/>
	<path fill="#FFFFFF" d="M103.9,280.7H84.4L64.3,242H64c0.5,6.1,0.7,10.7,0.7,14v24.8H51.5v-55h19.4l20,38.2h0.2
		c-0.4-5.5-0.5-10-0.5-13.3v-24.9h13.2V280.7z"/>
	<path fill="#FFFFFF" d="M148.9,280.7l-2.7-10.3h-17.9l-2.8,10.3h-16.3l17.9-55.2H147l18.2,55.2H148.9z M143.1,258.3l-2.4-9
		c-0.6-2-1.2-4.6-2-7.8c-0.8-3.2-1.3-5.5-1.6-6.8c-0.2,1.3-0.7,3.4-1.3,6.3c-0.7,2.9-2.1,8.7-4.4,17.3H143.1z"/>
	<path fill="#FFFFFF" d="M210.5,243.2c0,6.1-1.8,10.9-5.4,14.2c-3.6,3.3-8.8,5-15.4,5h-4.2v18.2h-14.9v-55h19
		c6.9,0,12.2,1.5,15.6,4.6C208.8,233.3,210.5,237.7,210.5,243.2z M185.5,250.4h2.7c2.2,0,4-0.6,5.3-1.9c1.3-1.3,2-3,2-5.2
		c0-3.7-2.1-5.6-6.2-5.6h-3.8V250.4z"/>
	<path fill="#FFFFFF" d="M254.4,264c0,3.4-0.9,6.4-2.6,9.1c-1.7,2.6-4.2,4.7-7.5,6.2c-3.3,1.5-7.1,2.2-11.5,2.2
		c-3.7,0-6.7-0.3-9.2-0.8s-5.1-1.4-7.7-2.7v-13.2c2.8,1.5,5.8,2.6,8.8,3.4c3.1,0.8,5.9,1.2,8.4,1.2c2.2,0,3.8-0.4,4.9-1.1
		c1-0.8,1.5-1.7,1.5-3c0-0.8-0.2-1.4-0.6-2s-1.1-1.1-2-1.7c-0.9-0.6-3.4-1.8-7.3-3.5c-3.6-1.6-6.3-3.2-8.1-4.7
		c-1.8-1.5-3.1-3.3-4-5.3c-0.9-2-1.3-4.3-1.3-7c0-5.1,1.8-9,5.5-11.8c3.7-2.8,8.7-4.2,15.2-4.2c5.7,0,11.5,1.3,17.4,3.9l-4.6,11.5
		c-5.1-2.4-9.6-3.5-13.3-3.5c-1.9,0-3.3,0.3-4.2,1c-0.9,0.7-1.3,1.5-1.3,2.5c0,1.1,0.6,2,1.7,2.9c1.1,0.9,4.1,2.4,9.1,4.7
		c4.7,2.1,8,4.4,9.9,6.9C253.5,257.3,254.4,260.3,254.4,264z"/>
	<path fill="#FFFFFF" d="M309.5,280.7h-14.9v-22.4h-17.3v22.4h-14.9v-55h14.9v20.4h17.3v-20.4h14.9V280.7z"/>
	<path fill="#FFFFFF" d="M371.5,253.2c0,9.3-2.3,16.3-6.8,21.1c-4.5,4.8-11.2,7.2-19.9,7.2c-8.6,0-15.2-2.4-19.8-7.3
		c-4.6-4.8-6.9-11.9-6.9-21.1c0-9.2,2.3-16.1,6.9-21c4.6-4.8,11.2-7.2,19.9-7.2c8.7,0,15.4,2.4,19.9,7.2
		C369.2,236.9,371.5,243.9,371.5,253.2z M333.6,253.2c0,10.6,3.7,15.9,11.1,15.9c3.8,0,6.5-1.3,8.4-3.9c1.8-2.6,2.7-6.6,2.7-12.1
		c0-5.5-0.9-9.5-2.8-12.2c-1.8-2.6-4.6-3.9-8.3-3.9C337.4,237.1,333.6,242.4,333.6,253.2z"/>
	<path fill="#FFFFFF" d="M403.9,280.7H389v-42.8h-13.4v-12.1h41.7v12.1h-13.4V280.7z"/>
</g>
<g>
	<path fill="#FFFFFF" d="M193.3,156.5v4.9h-3v-4.9H193.3z M193.3,166.1V191h-3v-24.9H193.3z"/>
	<path fill="#FFFFFF" d="M202.1,166.1v4.3h0.1c0.6-1.5,1.6-2.7,3.1-3.6c1.5-0.9,3.1-1.4,4.9-1.4c1.7,0,3.2,0.2,4.4,0.7
		c1.2,0.5,2.1,1.1,2.8,1.9c0.7,0.8,1.2,1.8,1.5,3c0.3,1.2,0.4,2.5,0.4,4v16h-3v-15.5c0-1.1-0.1-2.1-0.3-3c-0.2-0.9-0.5-1.7-1-2.4
		s-1.1-1.2-2-1.6c-0.8-0.4-1.8-0.6-3.1-0.6c-1.2,0-2.3,0.2-3.3,0.7c-0.9,0.4-1.8,1-2.4,1.8c-0.7,0.8-1.2,1.7-1.5,2.7
		c-0.4,1-0.6,2.2-0.6,3.4V191h-3v-24.9H202.1z"/>
	<path fill="#FFFFFF" d="M234.9,166.1v2.6h-5.1v16.8c0,1,0.1,1.8,0.4,2.3c0.3,0.6,1,0.9,2.1,0.9c0.9,0,1.7,0,2.6-0.1v2.6
		c-0.5,0-0.9,0-1.4,0c-0.5,0-0.9,0-1.4,0c-2,0-3.4-0.4-4.2-1.2c-0.8-0.8-1.2-2.2-1.2-4.4v-17h-4.3v-2.6h4.3v-7.5h3v7.5H234.9z"/>
	<path fill="#FFFFFF" d="M242.1,166.1v5.8h0.1c0.8-2,2-3.6,3.6-4.7c1.6-1.1,3.6-1.6,5.8-1.5v3c-1.4-0.1-2.6,0.1-3.8,0.6
		c-1.1,0.4-2.1,1.1-2.9,1.9c-0.8,0.8-1.5,1.8-1.9,2.9c-0.5,1.1-0.7,2.3-0.7,3.6V191h-3v-24.9H242.1z"/>
	<path fill="#FFFFFF" d="M269.2,166.4c1.5,0.7,2.7,1.7,3.7,2.8c1,1.2,1.8,2.6,2.3,4.2c0.5,1.6,0.8,3.3,0.8,5.1
		c0,1.8-0.3,3.5-0.8,5.1c-0.5,1.6-1.3,3-2.3,4.2c-1,1.2-2.2,2.1-3.7,2.8c-1.5,0.7-3.1,1-5,1c-1.9,0-3.6-0.3-5-1
		c-1.5-0.7-2.7-1.6-3.7-2.8c-1-1.2-1.8-2.6-2.3-4.2c-0.5-1.6-0.8-3.3-0.8-5.1c0-1.8,0.3-3.5,0.8-5.1c0.5-1.6,1.3-3,2.3-4.2
		c1-1.2,2.2-2.1,3.7-2.8c1.5-0.7,3.1-1.1,5-1.1C266.1,165.3,267.7,165.7,269.2,166.4z M260.4,168.8c-1.1,0.6-2,1.4-2.7,2.4
		s-1.3,2.1-1.6,3.4c-0.4,1.3-0.6,2.6-0.6,3.9c0,1.3,0.2,2.6,0.6,3.9c0.4,1.3,0.9,2.4,1.6,3.4c0.7,1,1.6,1.8,2.7,2.4
		c1.1,0.6,2.4,0.9,3.8,0.9c1.4,0,2.7-0.3,3.8-0.9c1.1-0.6,2-1.4,2.7-2.4c0.7-1,1.3-2.1,1.6-3.4c0.4-1.3,0.6-2.6,0.6-3.9
		c0-1.3-0.2-2.6-0.6-3.9c-0.4-1.3-0.9-2.4-1.6-3.4s-1.6-1.8-2.7-2.4c-1.1-0.6-2.4-0.9-3.8-0.9C262.7,167.9,261.4,168.2,260.4,168.8z
		"/>
	<path fill="#FFFFFF" d="M299.6,191v-4.7h-0.1c-0.3,0.8-0.8,1.5-1.4,2.2c-0.6,0.7-1.3,1.2-2.1,1.7c-0.8,0.5-1.7,0.8-2.6,1.1
		c-0.9,0.3-1.8,0.4-2.7,0.4c-1.9,0-3.5-0.3-4.9-1c-1.4-0.7-2.6-1.6-3.5-2.8c-0.9-1.2-1.6-2.6-2.1-4.2c-0.5-1.6-0.7-3.3-0.7-5
		c0-1.8,0.2-3.5,0.7-5c0.5-1.6,1.1-3,2.1-4.2c0.9-1.2,2.1-2.2,3.5-2.9c1.4-0.7,3-1.1,4.9-1.1c0.9,0,1.8,0.1,2.7,0.3
		c0.9,0.2,1.7,0.6,2.5,1c0.8,0.5,1.5,1,2.1,1.7c0.6,0.7,1.1,1.5,1.4,2.4h0.1v-14.3h3V191H299.6z M282.9,182.3
		c0.3,1.3,0.8,2.4,1.4,3.4c0.7,1,1.5,1.8,2.5,2.4c1,0.6,2.3,0.9,3.7,0.9c1.6,0,3-0.3,4.1-0.9c1.1-0.6,2-1.4,2.7-2.4
		c0.7-1,1.2-2.1,1.5-3.4c0.3-1.3,0.5-2.5,0.5-3.8c0-1.3-0.2-2.6-0.5-3.8c-0.3-1.3-0.8-2.4-1.5-3.4c-0.7-1-1.6-1.8-2.7-2.4
		c-1.1-0.6-2.5-0.9-4.1-0.9c-1.4,0-2.7,0.3-3.7,0.9c-1,0.6-1.9,1.4-2.5,2.4c-0.7,1-1.1,2.1-1.4,3.4c-0.3,1.3-0.5,2.5-0.5,3.8
		C282.5,179.8,282.6,181.1,282.9,182.3z"/>
	<path fill="#FFFFFF" d="M325.5,191v-4.5h-0.1c-0.8,1.7-2,3-3.5,3.8c-1.5,0.9-3.2,1.3-5.1,1.3c-1.6,0-2.9-0.2-4-0.7
		c-1.1-0.4-2-1.1-2.7-1.9c-0.7-0.8-1.2-1.8-1.5-2.9c-0.3-1.2-0.5-2.5-0.5-4v-16.2h3v16.2c0.1,2.3,0.6,4,1.6,5.1
		c1,1.2,2.7,1.7,5.1,1.7c1.3,0,2.4-0.3,3.4-0.8c0.9-0.6,1.7-1.3,2.3-2.2c0.6-0.9,1.1-2,1.4-3.2c0.3-1.2,0.4-2.4,0.4-3.7v-13.1h3V191
		H325.5z"/>
	<path fill="#FFFFFF" d="M349.3,169.5c-1.1-1.1-2.7-1.6-4.7-1.6c-1.4,0-2.7,0.3-3.8,0.9c-1.1,0.6-2,1.4-2.7,2.4s-1.3,2.1-1.6,3.4
		c-0.4,1.3-0.6,2.6-0.6,3.9c0,1.3,0.2,2.6,0.6,3.9c0.4,1.3,0.9,2.4,1.6,3.4c0.7,1,1.6,1.8,2.7,2.4c1.1,0.6,2.4,0.9,3.8,0.9
		c0.9,0,1.8-0.2,2.7-0.5c0.8-0.4,1.6-0.8,2.2-1.5c0.6-0.6,1.2-1.4,1.6-2.2c0.4-0.9,0.7-1.8,0.8-2.8h3c-0.4,3-1.5,5.4-3.3,7.1
		c-1.8,1.7-4.1,2.5-6.9,2.5c-1.9,0-3.6-0.3-5-1c-1.5-0.7-2.7-1.6-3.7-2.8c-1-1.2-1.8-2.6-2.3-4.2c-0.5-1.6-0.8-3.3-0.8-5.1
		c0-1.8,0.3-3.5,0.8-5.1c0.5-1.6,1.3-3,2.3-4.2c1-1.2,2.2-2.1,3.7-2.8c1.5-0.7,3.1-1.1,5-1.1c2.7,0,4.9,0.7,6.8,2.1
		c1.8,1.4,3,3.6,3.3,6.4h-3C351.2,172,350.4,170.5,349.3,169.5z"/>
	<path fill="#FFFFFF" d="M362.2,156.5v4.9h-3v-4.9H362.2z M362.2,166.1V191h-3v-24.9H362.2z"/>
	<path fill="#FFFFFF" d="M371,166.1v4.3h0.1c0.6-1.5,1.6-2.7,3.1-3.6c1.5-0.9,3.1-1.4,4.9-1.4c1.7,0,3.2,0.2,4.4,0.7
		c1.2,0.5,2.1,1.1,2.8,1.9c0.7,0.8,1.2,1.8,1.5,3c0.3,1.2,0.4,2.5,0.4,4v16h-3v-15.5c0-1.1-0.1-2.1-0.3-3c-0.2-0.9-0.5-1.7-1-2.4
		s-1.1-1.2-2-1.6c-0.8-0.4-1.8-0.6-3.1-0.6c-1.2,0-2.3,0.2-3.3,0.7c-0.9,0.4-1.8,1-2.4,1.8c-0.7,0.8-1.2,1.7-1.5,2.7
		c-0.4,1-0.6,2.2-0.6,3.4V191h-3v-24.9H371z"/>
	<path fill="#FFFFFF" d="M414.4,193.9c-0.4,1.5-1,2.7-1.9,3.8c-0.9,1-2,1.8-3.4,2.4c-1.4,0.5-3.1,0.8-5.1,0.8
		c-1.3,0-2.5-0.1-3.7-0.4c-1.2-0.3-2.3-0.7-3.2-1.4c-0.9-0.6-1.7-1.4-2.4-2.3c-0.6-0.9-1-2.1-1.1-3.4h3c0.2,0.9,0.5,1.7,0.9,2.3
		c0.5,0.6,1,1.1,1.7,1.5c0.7,0.4,1.4,0.7,2.2,0.8c0.8,0.2,1.6,0.3,2.5,0.3c2.8,0,4.9-0.8,6.1-2.4c1.3-1.6,1.9-3.9,1.9-6.9v-3.4h-0.1
		c-0.7,1.5-1.7,2.8-3.1,3.7c-1.4,0.9-3,1.4-4.8,1.4c-2,0-3.7-0.3-5.1-1c-1.4-0.7-2.6-1.6-3.5-2.7c-0.9-1.2-1.6-2.5-2-4.1
		c-0.4-1.6-0.6-3.2-0.6-5c0-1.7,0.2-3.3,0.7-4.8c0.5-1.5,1.2-2.9,2.2-4c0.9-1.1,2.1-2,3.5-2.7c1.4-0.7,3-1,4.8-1
		c0.9,0,1.8,0.1,2.6,0.4c0.8,0.3,1.6,0.6,2.2,1.1c0.7,0.5,1.3,1,1.8,1.6c0.5,0.6,0.9,1.3,1.2,1.9h0.1v-4.3h3v22.9
		C415,190.8,414.8,192.4,414.4,193.9z M407.4,187.3c1-0.6,1.8-1.3,2.5-2.2c0.7-0.9,1.2-2,1.5-3.2c0.3-1.2,0.5-2.4,0.5-3.7
		c0-1.2-0.1-2.4-0.4-3.7c-0.3-1.2-0.8-2.3-1.4-3.3c-0.6-1-1.5-1.8-2.5-2.4c-1-0.6-2.2-0.9-3.7-0.9c-1.4,0-2.7,0.3-3.7,0.9
		c-1,0.6-1.9,1.4-2.6,2.3c-0.7,1-1.2,2.1-1.5,3.3c-0.3,1.2-0.5,2.5-0.5,3.8c0,1.3,0.2,2.5,0.5,3.7c0.3,1.2,0.8,2.2,1.5,3.2
		c0.7,0.9,1.5,1.7,2.6,2.2c1,0.6,2.3,0.8,3.7,0.8C405.3,188.1,406.4,187.8,407.4,187.3z"/>
</g>
<g>
	<path fill="#FFFFFF" d="M912.4,310.8v4.7h0.1c0.7-1.7,1.9-3.1,3.5-4c1.6-0.9,3.4-1.4,5.4-1.4c1.9,0,3.5,0.4,4.9,1.1
		c1.4,0.7,2.6,1.7,3.5,2.9c0.9,1.2,1.6,2.6,2.1,4.2c0.5,1.6,0.7,3.3,0.7,5c0,1.8-0.2,3.4-0.7,5c-0.5,1.6-1.1,3-2.1,4.2
		c-0.9,1.2-2.1,2.2-3.5,2.8c-1.4,0.7-3,1-4.9,1c-0.9,0-1.8-0.1-2.7-0.3c-0.9-0.2-1.7-0.6-2.5-1c-0.8-0.5-1.5-1-2.1-1.7
		c-0.6-0.7-1.1-1.5-1.4-2.4h-0.1v13.9h-3v-34.1H912.4z M929.1,319.4c-0.3-1.3-0.8-2.4-1.4-3.4s-1.5-1.8-2.5-2.4
		c-1-0.6-2.3-0.9-3.7-0.9c-1.7,0-3.1,0.3-4.2,0.9c-1.1,0.6-2,1.4-2.7,2.3c-0.7,1-1.2,2.1-1.4,3.4s-0.4,2.6-0.4,4.1
		c0,1.3,0.2,2.6,0.5,3.8s0.8,2.4,1.5,3.4c0.7,1,1.6,1.8,2.7,2.4s2.5,0.9,4.1,0.9c1.4,0,2.7-0.3,3.7-0.9s1.9-1.4,2.5-2.4
		s1.1-2.1,1.4-3.4s0.5-2.5,0.5-3.8C929.5,322,929.4,320.7,929.1,319.4z"/>
	<path fill="#FFFFFF" d="M940.1,310.8v5.8h0.1c0.8-2,2-3.6,3.6-4.7c1.6-1.1,3.6-1.6,5.8-1.5v3c-1.4-0.1-2.6,0.1-3.8,0.6
		c-1.1,0.4-2.1,1.1-2.9,1.9c-0.8,0.8-1.5,1.8-1.9,2.9c-0.5,1.1-0.7,2.3-0.7,3.6v13.3h-3v-24.9H940.1z"/>
	<path fill="#FFFFFF" d="M967.2,311.1c1.5,0.7,2.7,1.7,3.7,2.8s1.8,2.6,2.3,4.2c0.5,1.6,0.8,3.3,0.8,5.1c0,1.8-0.3,3.5-0.8,5.1
		c-0.5,1.6-1.3,3-2.3,4.2c-1,1.2-2.2,2.1-3.7,2.8c-1.5,0.7-3.1,1-5,1c-1.9,0-3.6-0.3-5-1c-1.5-0.7-2.7-1.6-3.7-2.8
		c-1-1.2-1.8-2.6-2.3-4.2c-0.5-1.6-0.8-3.3-0.8-5.1c0-1.8,0.3-3.5,0.8-5.1c0.5-1.6,1.3-3,2.3-4.2c1-1.2,2.2-2.1,3.7-2.8
		c1.5-0.7,3.1-1.1,5-1.1C964.1,310.1,965.7,310.4,967.2,311.1z M958.3,313.6c-1.1,0.6-2,1.4-2.7,2.4c-0.7,1-1.3,2.1-1.6,3.4
		c-0.4,1.3-0.6,2.6-0.6,3.9c0,1.3,0.2,2.6,0.6,3.9c0.4,1.3,0.9,2.4,1.6,3.4c0.7,1,1.6,1.8,2.7,2.4c1.1,0.6,2.4,0.9,3.8,0.9
		c1.4,0,2.7-0.3,3.8-0.9s2-1.4,2.7-2.4c0.7-1,1.3-2.1,1.6-3.4c0.4-1.3,0.6-2.6,0.6-3.9c0-1.3-0.2-2.6-0.6-3.9
		c-0.4-1.3-0.9-2.4-1.6-3.4c-0.7-1-1.6-1.8-2.7-2.4c-1.1-0.6-2.4-0.9-3.8-0.9C960.7,312.6,959.4,313,958.3,313.6z"/>
	<path fill="#FFFFFF" d="M995.8,335.7v-4.5h-0.1c-0.8,1.7-2,3-3.5,3.8c-1.5,0.9-3.2,1.3-5.1,1.3c-1.6,0-2.9-0.2-4-0.7
		c-1.1-0.4-2-1.1-2.7-1.9s-1.2-1.8-1.5-2.9c-0.3-1.2-0.5-2.5-0.5-4v-16.2h3V327c0.1,2.3,0.6,4,1.6,5.1s2.7,1.7,5.1,1.7
		c1.3,0,2.4-0.3,3.4-0.8c0.9-0.6,1.7-1.3,2.3-2.2c0.6-0.9,1.1-2,1.4-3.2c0.3-1.2,0.4-2.4,0.4-3.7v-13.1h3v24.9H995.8z"/>
	<path fill="#FFFFFF" d="M1023.5,335.7V331h-0.1c-0.3,0.8-0.8,1.5-1.4,2.2c-0.6,0.7-1.3,1.2-2.1,1.7c-0.8,0.5-1.7,0.8-2.6,1.1
		c-0.9,0.3-1.8,0.4-2.7,0.4c-1.9,0-3.5-0.3-4.9-1c-1.4-0.7-2.6-1.6-3.5-2.8c-0.9-1.2-1.6-2.6-2.1-4.2c-0.5-1.6-0.7-3.3-0.7-5
		c0-1.8,0.2-3.5,0.7-5c0.5-1.6,1.1-3,2.1-4.2c0.9-1.2,2.1-2.2,3.5-2.9c1.4-0.7,3-1.1,4.9-1.1c0.9,0,1.8,0.1,2.7,0.3
		c0.9,0.2,1.7,0.6,2.5,1c0.8,0.5,1.5,1,2.1,1.7c0.6,0.7,1.1,1.5,1.4,2.4h0.1v-14.3h3v34.5H1023.5z M1006.8,327.1
		c0.3,1.3,0.8,2.4,1.4,3.4c0.7,1,1.5,1.8,2.5,2.4c1,0.6,2.3,0.9,3.7,0.9c1.6,0,3-0.3,4.1-0.9s2-1.4,2.7-2.4c0.7-1,1.2-2.1,1.5-3.4
		s0.5-2.5,0.5-3.8c0-1.3-0.2-2.6-0.5-3.8c-0.3-1.3-0.8-2.4-1.5-3.4c-0.7-1-1.6-1.8-2.7-2.4c-1.1-0.6-2.5-0.9-4.1-0.9
		c-1.4,0-2.7,0.3-3.7,0.9c-1,0.6-1.9,1.4-2.5,2.4c-0.7,1-1.1,2.1-1.4,3.4c-0.3,1.3-0.5,2.5-0.5,3.8
		C1006.4,324.5,1006.5,325.8,1006.8,327.1z"/>
	<path fill="#FFFFFF" d="M1035.2,301.3v34.5h-3v-34.5H1035.2z"/>
	<path fill="#FFFFFF" d="M1041.4,310.8l8.2,21.2l7.7-21.2h3l-10.8,28.7c-0.5,1.1-0.9,1.9-1.3,2.6s-0.8,1.2-1.3,1.6
		c-0.5,0.4-1,0.7-1.6,0.9c-0.6,0.2-1.4,0.3-2.4,0.3c-0.6,0-1.1-0.1-1.4-0.1c-0.3,0-0.6-0.1-0.9-0.2v-2.6c0.4,0.1,0.7,0.1,1,0.2
		c0.3,0,0.7,0.1,1,0.1c0.7,0,1.2-0.1,1.7-0.3c0.4-0.2,0.8-0.5,1.1-0.8c0.3-0.3,0.6-0.7,0.8-1.2c0.2-0.5,0.5-1,0.7-1.6l1.1-2.8
		l-9.9-24.8H1041.4z"/>
	<path fill="#FFFFFF" d="M1079.7,301.3v13.8h0.1c0.6-1.5,1.6-2.7,3.1-3.6c1.5-0.9,3.1-1.4,4.9-1.4c1.7,0,3.2,0.2,4.4,0.7
		c1.2,0.5,2.1,1.1,2.8,1.9c0.7,0.8,1.2,1.8,1.5,3c0.3,1.2,0.4,2.5,0.4,4v16h-3v-15.5c0-1.1-0.1-2.1-0.3-3c-0.2-0.9-0.5-1.7-1-2.4
		c-0.5-0.7-1.1-1.2-2-1.6s-1.8-0.6-3.1-0.6c-1.2,0-2.3,0.2-3.3,0.7c-0.9,0.4-1.8,1-2.4,1.8c-0.7,0.8-1.2,1.7-1.5,2.7
		c-0.4,1-0.6,2.2-0.6,3.4v14.5h-3v-34.5H1079.7z"/>
	<path fill="#FFFFFF" d="M1118.2,311.1c1.5,0.7,2.7,1.7,3.7,2.8s1.8,2.6,2.3,4.2c0.5,1.6,0.8,3.3,0.8,5.1c0,1.8-0.3,3.5-0.8,5.1
		c-0.5,1.6-1.3,3-2.3,4.2c-1,1.2-2.2,2.1-3.7,2.8c-1.5,0.7-3.1,1-5,1c-1.9,0-3.6-0.3-5-1c-1.5-0.7-2.7-1.6-3.7-2.8
		c-1-1.2-1.8-2.6-2.3-4.2c-0.5-1.6-0.8-3.3-0.8-5.1c0-1.8,0.3-3.5,0.8-5.1c0.5-1.6,1.3-3,2.3-4.2c1-1.2,2.2-2.1,3.7-2.8
		c1.5-0.7,3.1-1.1,5-1.1C1115.1,310.1,1116.8,310.4,1118.2,311.1z M1109.4,313.6c-1.1,0.6-2,1.4-2.7,2.4c-0.7,1-1.3,2.1-1.6,3.4
		c-0.4,1.3-0.6,2.6-0.6,3.9c0,1.3,0.2,2.6,0.6,3.9c0.4,1.3,0.9,2.4,1.6,3.4c0.7,1,1.6,1.8,2.7,2.4c1.1,0.6,2.4,0.9,3.8,0.9
		c1.4,0,2.7-0.3,3.8-0.9s2-1.4,2.7-2.4c0.7-1,1.3-2.1,1.6-3.4c0.4-1.3,0.6-2.6,0.6-3.9c0-1.3-0.2-2.6-0.6-3.9
		c-0.4-1.3-0.9-2.4-1.6-3.4c-0.7-1-1.6-1.8-2.7-2.4c-1.1-0.6-2.4-0.9-3.8-0.9C1111.7,312.6,1110.5,313,1109.4,313.6z"/>
	<path fill="#FFFFFF" d="M1143.8,315.7c-0.4-0.7-0.8-1.3-1.4-1.7c-0.6-0.5-1.3-0.8-2.1-1c-0.8-0.2-1.6-0.3-2.5-0.3
		c-0.7,0-1.4,0.1-2,0.2c-0.7,0.1-1.3,0.4-1.9,0.7c-0.6,0.3-1,0.8-1.4,1.3c-0.4,0.5-0.5,1.2-0.5,2c0,0.7,0.2,1.2,0.5,1.7
		c0.3,0.5,0.8,0.9,1.3,1.2c0.5,0.3,1.1,0.6,1.7,0.8c0.6,0.2,1.2,0.4,1.7,0.5l4.1,0.9c0.9,0.1,1.7,0.4,2.6,0.7
		c0.9,0.3,1.6,0.8,2.3,1.3c0.7,0.5,1.2,1.2,1.6,2c0.4,0.8,0.6,1.8,0.6,2.8c0,1.4-0.3,2.5-0.9,3.5c-0.6,0.9-1.4,1.7-2.3,2.3
		c-0.9,0.6-2,1-3.2,1.3c-1.2,0.3-2.4,0.4-3.5,0.4c-2.9,0-5.3-0.7-7.1-2.1c-1.8-1.4-2.9-3.6-3.1-6.7h3c0.1,2.1,0.9,3.6,2.2,4.7
		c1.4,1,3.1,1.6,5.1,1.6c0.7,0,1.5-0.1,2.3-0.2c0.8-0.2,1.5-0.4,2.2-0.8c0.7-0.4,1.2-0.9,1.7-1.5c0.4-0.6,0.7-1.3,0.7-2.2
		c0-0.7-0.2-1.4-0.5-1.9c-0.3-0.5-0.7-0.9-1.2-1.3s-1.1-0.6-1.8-0.8c-0.7-0.2-1.3-0.4-2-0.6l-3.9-0.9c-1-0.3-1.9-0.6-2.8-0.9
		c-0.8-0.3-1.6-0.8-2.2-1.3c-0.6-0.5-1.1-1.1-1.5-1.8c-0.4-0.7-0.5-1.6-0.5-2.7c0-1.3,0.3-2.3,0.8-3.2c0.6-0.9,1.3-1.6,2.2-2.2
		c0.9-0.5,1.9-0.9,3-1.2c1.1-0.3,2.2-0.4,3.3-0.4c1.3,0,2.4,0.2,3.5,0.5c1.1,0.3,2,0.8,2.8,1.5c0.8,0.7,1.5,1.5,2,2.5
		c0.5,1,0.8,2.2,0.8,3.5h-3C1144.4,317.2,1144.2,316.4,1143.8,315.7z"/>
	<path fill="#FFFFFF" d="M1162.6,310.8v2.6h-5.1v16.8c0,1,0.1,1.8,0.4,2.3c0.3,0.6,1,0.9,2.1,0.9c0.9,0,1.7,0,2.6-0.1v2.6
		c-0.5,0-0.9,0-1.4,0c-0.5,0-0.9,0-1.4,0c-2,0-3.4-0.4-4.2-1.2s-1.2-2.2-1.2-4.4v-17h-4.3v-2.6h4.3v-7.5h3v7.5H1162.6z"/>
	<path fill="#FFFFFF" d="M1169.2,327.5c0.3,1.2,0.8,2.2,1.5,3.2c0.7,0.9,1.5,1.7,2.6,2.3s2.3,0.9,3.7,0.9c2.2,0,4-0.6,5.2-1.7
		c1.3-1.2,2.1-2.7,2.6-4.6h3c-0.6,2.8-1.8,5-3.5,6.6s-4.2,2.3-7.3,2.3c-2,0-3.7-0.3-5.1-1c-1.4-0.7-2.6-1.6-3.5-2.8
		c-0.9-1.2-1.6-2.6-2-4.2c-0.4-1.6-0.7-3.3-0.7-5c0-1.6,0.2-3.2,0.7-4.8c0.4-1.6,1.1-3,2-4.2s2.1-2.2,3.5-3s3.1-1.1,5.1-1.1
		c2,0,3.7,0.4,5.1,1.2c1.4,0.8,2.6,1.9,3.5,3.2c0.9,1.3,1.5,2.8,1.9,4.5c0.4,1.7,0.5,3.4,0.5,5.1h-19.2
		C1168.8,325.2,1168.9,326.3,1169.2,327.5z M1184.3,318.2c-0.4-1.1-0.9-2-1.6-2.8c-0.7-0.8-1.5-1.5-2.5-2c-1-0.5-2.1-0.7-3.3-0.7
		c-1.3,0-2.4,0.2-3.3,0.7c-1,0.5-1.8,1.2-2.5,2s-1.2,1.8-1.6,2.8c-0.4,1.1-0.7,2.2-0.8,3.3h16.1
		C1184.8,320.4,1184.6,319.3,1184.3,318.2z"/>
	<path fill="#FFFFFF" d="M1211.1,335.7V331h-0.1c-0.3,0.8-0.8,1.5-1.4,2.2c-0.6,0.7-1.3,1.2-2.1,1.7c-0.8,0.5-1.7,0.8-2.6,1.1
		c-0.9,0.3-1.8,0.4-2.7,0.4c-1.9,0-3.5-0.3-4.9-1c-1.4-0.7-2.6-1.6-3.5-2.8c-0.9-1.2-1.6-2.6-2.1-4.2c-0.5-1.6-0.7-3.3-0.7-5
		c0-1.8,0.2-3.5,0.7-5c0.5-1.6,1.1-3,2.1-4.2c0.9-1.2,2.1-2.2,3.5-2.9c1.4-0.7,3-1.1,4.9-1.1c0.9,0,1.8,0.1,2.7,0.3
		c0.9,0.2,1.7,0.6,2.5,1c0.8,0.5,1.5,1,2.1,1.7c0.6,0.7,1.1,1.5,1.4,2.4h0.1v-14.3h3v34.5H1211.1z M1194.5,327.1
		c0.3,1.3,0.8,2.4,1.4,3.4c0.7,1,1.5,1.8,2.5,2.4c1,0.6,2.3,0.9,3.7,0.9c1.6,0,3-0.3,4.1-0.9s2-1.4,2.7-2.4c0.7-1,1.2-2.1,1.5-3.4
		s0.5-2.5,0.5-3.8c0-1.3-0.2-2.6-0.5-3.8c-0.3-1.3-0.8-2.4-1.5-3.4c-0.7-1-1.6-1.8-2.7-2.4c-1.1-0.6-2.5-0.9-4.1-0.9
		c-1.4,0-2.7,0.3-3.7,0.9c-1,0.6-1.9,1.4-2.5,2.4c-0.7,1-1.1,2.1-1.4,3.4c-0.3,1.3-0.5,2.5-0.5,3.8
		C1194,324.5,1194.1,325.8,1194.5,327.1z"/>
	<path fill="#FFFFFF" d="M1236.2,301.3v14.3h0.1c0.3-0.9,0.8-1.7,1.4-2.4c0.6-0.7,1.3-1.2,2.1-1.7c0.8-0.5,1.6-0.8,2.5-1
		c0.9-0.2,1.8-0.3,2.7-0.3c1.9,0,3.5,0.4,4.9,1.1c1.4,0.7,2.6,1.7,3.5,2.9c0.9,1.2,1.6,2.6,2.1,4.2c0.5,1.6,0.7,3.3,0.7,5
		c0,1.8-0.2,3.4-0.7,5c-0.5,1.6-1.1,3-2.1,4.2c-0.9,1.2-2.1,2.2-3.5,2.8c-1.4,0.7-3,1-4.9,1c-2,0-3.8-0.5-5.4-1.4
		c-1.6-0.9-2.7-2.3-3.5-4h-0.1v4.7h-2.8v-34.5H1236.2z M1252.6,319.4c-0.3-1.3-0.8-2.4-1.4-3.4s-1.5-1.8-2.5-2.4
		c-1-0.6-2.3-0.9-3.7-0.9c-1.6,0-3,0.3-4.1,0.9c-1.1,0.6-2,1.4-2.7,2.4c-0.7,1-1.2,2.1-1.5,3.4c-0.3,1.3-0.5,2.5-0.5,3.8
		c0,1.3,0.2,2.6,0.5,3.8s0.8,2.4,1.5,3.4c0.7,1,1.6,1.8,2.7,2.4s2.5,0.9,4.1,0.9c1.4,0,2.7-0.3,3.7-0.9s1.9-1.4,2.5-2.4
		s1.1-2.1,1.4-3.4s0.5-2.5,0.5-3.8C1253,322,1252.9,320.7,1252.6,319.4z"/>
	<path fill="#FFFFFF" d="M1261.3,310.8l8.2,21.2l7.7-21.2h3l-10.8,28.7c-0.5,1.1-0.9,1.9-1.3,2.6s-0.8,1.2-1.3,1.6
		c-0.5,0.4-1,0.7-1.6,0.9c-0.6,0.2-1.4,0.3-2.4,0.3c-0.6,0-1.1-0.1-1.4-0.1c-0.3,0-0.6-0.1-0.9-0.2v-2.6c0.4,0.1,0.7,0.1,1,0.2
		c0.3,0,0.7,0.1,1,0.1c0.7,0,1.2-0.1,1.7-0.3c0.4-0.2,0.8-0.5,1.1-0.8c0.3-0.3,0.6-0.7,0.8-1.2c0.2-0.5,0.5-1,0.7-1.6l1.1-2.8
		l-9.9-24.8H1261.3z"/>
</g>
<g>
	<path fill="#FFFFFF" d="M938.4,372.1c-1.8-0.7-3.9-1.1-5.8-1.1c-6.7,0-9.1,3.5-10.2,5.3h-0.1v-4h-10.5v37.7h11.3v-20.5
		c0-2.3,0-7.9,6.4-7.9c0.2,0,0.3,0,0.5,0C931.6,377.5,934.6,374.2,938.4,372.1z"/>
	<path fill="#FFFFFF" d="M959.3,376.3h-0.1c-1.4-2.3-4.8-5.3-11-5.3c-10,0-18.9,7.7-18.9,20.1c0,10.8,7,20.2,18.9,20.2
		c4.4,0,9.1-1.7,11-5.4h0.1v4.1h11.3v-37.7h-11.3V376.3z M949.9,400.7c-6.8,0-9.4-6-9.4-9.5c0-4.3,2.9-9.7,9.3-9.7
		c6.4,0,9.5,5,9.5,9.6C959.3,394.7,956.9,400.7,949.9,400.7z"/>
	<rect x="972.2" y="372.3" fill="#FFFFFF" width="11.3" height="37.7"/>
	<rect x="972.2" y="359.7" fill="#FFFFFF" width="11.3" height="8.5"/>
	<path fill="#FFFFFF" d="M1048.8,372.3h-11.9v-12.6h-11.3v12.6h-10c0.5,0.3,0.9,0.6,1.3,0.9c1.6,1.4,3.4,3.5,4.3,7.6h4.5v29.1h11.3
		v-29.1h4C1042.6,377.2,1045.4,374.2,1048.8,372.3z"/>
	<path fill="#FFFFFF" d="M1070.4,376.3h-0.1c-1.4-2.3-4.8-5.3-11-5.3c-10,0-18.9,7.7-18.9,20.1c0,10.8,7,20.2,18.9,20.2
		c4.4,0,9.1-1.7,11-5.4h0.1v4.1h11.3v-37.7h-11.3V376.3z M1060.9,400.7c-6.8,0-9.4-6-9.4-9.5c0-4.3,2.9-9.7,9.3-9.7
		c6.4,0,9.5,5,9.5,9.6C1070.4,394.7,1068,400.7,1060.9,400.7z"/>
	<path fill="#FFFFFF" d="M1113.8,374.2c-2-1.8-6-3.3-9.6-3.3c-6.7,0-9.1,3.5-10.2,5.3h-0.1v-4h-10.5v37.7h11.3v-20.5
		c0-2.3,0-7.9,6.4-7.9c5.9,0,5.9,5.2,5.9,7.8v20.6h11.3v-23.5C1118.2,379,1115.8,376,1113.8,374.2z"/>
	<polygon fill="#FFFFFF" points="1154.9,372.3 1141.6,372.3 1131.1,385.9 1131,385.9 1131,359.7 1119.7,359.7 1119.7,409.9 
		1131,409.9 1131,391.8 1131.1,391.8 1141.8,409.9 1154.5,409.9 1140.7,388.8 	"/>
	<path fill="#FFFFFF" d="M1015.5,374.2c-2-1.8-6-3.3-9.6-3.3c-6.7,0-9.1,3.5-10.2,5.3h-0.1v-4H985v37.7h11.3v-20.5
		c0-2.3,0-7.9,6.4-7.9c5.9,0,5.9,5.2,5.9,7.8v20.6h11.3v-23.5C1019.8,379,1017.5,376,1015.5,374.2z"/>
</g>
</svg>
