<?xml version="1.0" encoding="utf-8"?>
<!-- Generator: Adobe Illustrator 18.1.1, SVG Export Plug-In . SVG Version: 6.00 Build 0)  -->
<!DOCTYPE svg PUBLIC "-//W3C//DTD SVG 1.1//EN" "http://www.w3.org/Graphics/SVG/1.1/DTD/svg11.dtd">
<svg version="1.1" id="twitter" xmlns="http://www.w3.org/2000/svg" xmlns:xlink="http://www.w3.org/1999/xlink" x="0px" y="0px"
	 viewBox="31.6 37.4 61.8 50.4" enable-background="new 31.6 37.4 61.8 50.4" xml:space="preserve">
<path fill="#FFFFFF" d="M93.1,43.4c-2.3,1-4.7,1.7-7.2,2c2.6-1.6,4.6-4,5.5-7c-2.4,1.4-5.1,2.5-8,3.1c-2.3-2.5-5.6-4-9.2-4
	c-6.9,0-12.6,5.7-12.6,12.6c0,1,0.1,2,0.3,2.9c-10.4-0.5-19.7-5.6-25.9-13.2c-1.1,1.9-1.7,4-1.7,6.4c0,4.4,2.2,8.3,5.6,10.5
	c-2.1-0.1-4-0.6-5.7-1.6c0,0.1,0,0.1,0,0.2c0,6.1,4.3,11.2,10.1,12.4c-1.1,0.3-2.2,0.4-3.3,0.4c-0.8,0-1.6-0.1-2.4-0.2
	c1.6,5,6.2,8.7,11.7,8.8C46.2,80,40.8,82,34.9,82c-1,0-2-0.1-3-0.2c5.6,3.6,12.2,5.7,19.3,5.7c23.1,0,35.8-19.3,35.8-36
	c0-0.5,0-1.1,0-1.6C89.3,48.2,91.4,45.9,93.1,43.4z"/>
</svg>
